<?xml version="1.0" encoding="UTF-8" standalone="no"?>
<!-- Created with Inkscape (http://www.inkscape.org/) -->

<svg
   width="222.9635mm"
   height="222.9635mm"
   viewBox="0 0 222.9635 222.9635"
   version="1.1"
   id="svg205"
   xmlns="http://www.w3.org/2000/svg"
   xmlns:svg="http://www.w3.org/2000/svg">
  <defs
     id="defs202" />
  <g
     id="layer1"
     transform="translate(8.5913667,27.940901)">
    <g
       id="SvgjsG2343"
       featureKey="JKiIdh-0"
       transform="matrix(2.3871895,0,0,2.3871895,-16.469092,-35.818626)"
       fill="#000000">
      <g
         id="g11">
        <path
           d="m 40,50 c 0,-2.4 0.9,-4.6 2.3,-6.4 C 38.8,41.9 35,38.9 30.6,34.2 29.4,33 28.1,32 27.1,30.7 L 3.3,50 27,69.2 c 1,-0.7 2.3,-2.3 3.5,-3.5 C 35,61.1 39,58.2 42.5,56.6 41,54.9 40,52.5 40,50 Z"
           id="path3" />
        <path
           d="m 34.2,30.6 c 4.6,4.5 7.4,8.5 9.1,12 C 45.1,41 47.4,40 50,40 c 2.4,0 4.6,0.9 6.4,2.3 1.7,-3.5 4.7,-7.3 9.4,-11.7 1.2,-1.2 2.2,-2.5 3.5,-3.5 L 50,3.3 30.8,27.1 c 0.7,0.9 2.3,2.3 3.4,3.5 z"
           id="path5" />
        <path
           d="m 72.9,30.8 c -1,1.2 -2.2,2.4 -3.5,3.5 -4,3.3 -7.8,6.9 -11.9,9.2 1.5,1.8 2.4,4 2.4,6.5 0,2.6 -1,4.9 -2.6,6.7 4.2,2.1 8,5.8 12,9.1 1.3,1.1 2.5,2.2 3.5,3.5 L 96.7,50 Z"
           id="path7" />
        <path
           d="m 65.8,69.4 c -3.3,-4 -6.9,-7.8 -9.2,-11.9 -1.8,1.5 -4,2.4 -6.5,2.4 -2.6,0 -4.9,-1 -6.7,-2.6 -2.1,4.2 -5.7,8 -9,12 -1.1,1.3 -2.2,2.5 -3.5,3.5 L 50,96.7 69.2,73 C 68,71.9 66.8,70.8 65.8,69.4 Z"
           id="path9" />
      </g>
    </g>
  </g>
</svg>
