<?xml version="1.0" encoding="UTF-8" standalone="no"?>
<!-- Created with Inkscape (http://www.inkscape.org/) -->

<svg
   width="222.9635mm"
   height="222.9635mm"
   viewBox="0 0 222.9635 222.9635"
   version="1.1"
   id="svg204"
   inkscape:version="1.2.2 (b0a8486541, 2022-12-01)"
   sodipodi:docname="icon.svg"
   xmlns:inkscape="http://www.inkscape.org/namespaces/inkscape"
   xmlns:sodipodi="http://sodipodi.sourceforge.net/DTD/sodipodi-0.dtd"
   xmlns="http://www.w3.org/2000/svg"
   xmlns:svg="http://www.w3.org/2000/svg">
  <sodipodi:namedview
     id="namedview206"
     pagecolor="#ffffff"
     bordercolor="#000000"
     borderopacity="0.25"
     inkscape:showpageshadow="2"
     inkscape:pageopacity="0.0"
     inkscape:pagecheckerboard="0"
     inkscape:deskcolor="#d1d1d1"
     inkscape:document-units="mm"
     showgrid="false"
     inkscape:zoom="0.86145483"
     inkscape:cx="459.68748"
     inkscape:cy="670.95799"
     inkscape:window-width="1278"
     inkscape:window-height="1438"
     inkscape:window-x="3840"
     inkscape:window-y="0"
     inkscape:window-maximized="1"
     inkscape:current-layer="layer1" />
  <defs
     id="defs201" />
  <g
     inkscape:label="Layer 1"
     inkscape:groupmode="layer"
     id="layer1"
     transform="translate(16.884025,28.862308)">
    <g
       id="g11"
       transform="matrix(2.3871895,0,0,2.3871895,-24.76175,-36.740033)">
      <path
         d="m 40,50 c 0,-2.4 0.9,-4.6 2.3,-6.4 C 38.8,41.9 35,38.9 30.6,34.2 29.4,33 28.1,32 27.1,30.7 L 3.3,50 27,69.2 c 1,-0.7 2.3,-2.3 3.5,-3.5 C 35,61.1 39,58.2 42.5,56.6 41,54.9 40,52.5 40,50 Z"
         id="path3" />
      <path
         d="m 34.2,30.6 c 4.6,4.5 7.4,8.5 9.1,12 C 45.1,41 47.4,40 50,40 c 2.4,0 4.6,0.9 6.4,2.3 1.7,-3.5 4.7,-7.3 9.4,-11.7 1.2,-1.2 2.2,-2.5 3.5,-3.5 L 50,3.3 30.8,27.1 c 0.7,0.9 2.3,2.3 3.4,3.5 z"
         id="path5" />
      <path
         d="m 72.9,30.8 c -1,1.2 -2.2,2.4 -3.5,3.5 -4,3.3 -7.8,6.9 -11.9,9.2 1.5,1.8 2.4,4 2.4,6.5 0,2.6 -1,4.9 -2.6,6.7 4.2,2.1 8,5.8 12,9.1 1.3,1.1 2.5,2.2 3.5,3.5 L 96.7,50 Z"
         id="path7" />
      <path
         d="m 65.8,69.4 c -3.3,-4 -6.9,-7.8 -9.2,-11.9 -1.8,1.5 -4,2.4 -6.5,2.4 -2.6,0 -4.9,-1 -6.7,-2.6 -2.1,4.2 -5.7,8 -9,12 -1.1,1.3 -2.2,2.5 -3.5,3.5 L 50,96.7 69.2,73 C 68,71.9 66.8,70.8 65.8,69.4 Z"
         id="path9" />
    </g>
  </g>
</svg>
