<?xml version="1.0" encoding="UTF-8" standalone="no"?>
<svg
   width="100%"
   viewBox="0 0 340.000000 250.000000"
   version="1.1"
   id="svg121"
   sodipodi:docname="logo-1.svg"
   inkscape:version="1.1.2 (0a00cf5339, 2022-02-04, custom)"
   xmlns:inkscape="http://www.inkscape.org/namespaces/inkscape"
   xmlns:sodipodi="http://sodipodi.sourceforge.net/DTD/sodipodi-0.dtd"
   xmlns:xlink="http://www.w3.org/1999/xlink"
   xmlns="http://www.w3.org/2000/svg"
   xmlns:svg="http://www.w3.org/2000/svg">
  <sodipodi:namedview
     id="namedview123"
     pagecolor="#ffffff"
     bordercolor="#666666"
     borderopacity="1.0"
     inkscape:pageshadow="2"
     inkscape:pageopacity="0.0"
     inkscape:pagecheckerboard="0"
     showgrid="false"
     inkscape:zoom="2.908"
     inkscape:cx="169.8762"
     inkscape:cy="124.82806"
     inkscape:window-width="1724"
     inkscape:window-height="2103"
     inkscape:window-x="1728"
     inkscape:window-y="0"
     inkscape:window-maximized="1"
     inkscape:current-layer="svg121" />
  <rect
     x="0"
     y="0"
     width="100%"
     height="100%"
     fill="#0a0619"
     fill-opacity="1"
     class="background"
     id="rect2" />
  <g
     fill="#e16df5"
     class="icon-text-wrapper icon-svg-group iconsvg"
     transform="translate(19.906328,94.531494)"
     id="g53">
    <g
       class="iconsvg-imagesvg"
       mask="url(#mask-1)"
       id="g33">
      <g
         id="g29">
        <rect
           fill="#e16df5"
           fill-opacity="0"
           stroke-width="2"
           x="0"
           y="0"
           width="60"
           height="52.362873"
           class="image-rect"
           id="rect4" />
        <svg
           filter="url(#colors-1)"
           x="0"
           y="0"
           width="60"
           height="52.362873"
           filtersec="colors-2"
           class="image-svg-svg primary"
           style="overflow:visible"
           version="1.1"
           id="svg16">
          <svg
             viewBox="-0.0049398514 6.3601093 100.00986 87.2799"
             x="0px"
             y="0px"
             version="1.1"
             id="svg14"
             width="100%"
             height="100%">
            <defs
               id="defs6" />
            <title
               id="title8">Lambda-Oxygen-1</title>
            <path
               d="m 41.34,41.17 a 2.5,2.5 0 0 0 0,5 c 3.8,0 5.21,2.42 6.66,5.59 l 0.24,0.51 c 0.2,0.43 0.63,1.39 1.21,2.67 L 35.8,79.1 a 2.5,2.5 0 0 0 4.35,2.46 L 52,60.63 c 3.17,7.16 7.16,16.19 7.23,16.34 A 9.47,9.47 0 0 0 70.79,82.4 2.5019392,2.5019392 0 0 0 69.31,77.62 4.48,4.48 0 0 1 63.8,74.92 C 63.4,74.02 54.06,52.83 52.8,50.14 L 52.58,49.66 C 51.29,46.92 48.66,41.17 41.34,41.17 Z"
               id="path10" />
            <path
               d="M 99.67,89.89 52.17,7.61 a 2.5,2.5 0 0 0 -4.33,0 L 0.33,89.89 a 2.5,2.5 0 0 0 2.17,3.75 h 95 a 2.5,2.5 0 0 0 2.17,-3.75 z M 6.83,88.64 50,13.86 93.17,88.64 Z"
               id="path12" />
          </svg>
        </svg>
        <defs
           id="defs27">
          <filter
             id="colors-1"
             x="0"
             y="0"
             width="1"
             height="1">
            <feColorMatrix
               type="matrix"
               values="0 0 0 0 0.87890625  0 0 0 0 0.42578125  0 0 0 0 0.95703125  0 0 0 1 0"
               class="icon-fecolormatrix"
               id="feColorMatrix18" />
          </filter>
          <filter
             id="colors-2">
            <feColorMatrix
               type="matrix"
               values="0 0 0 0 0.99609375  0 0 0 0 0.99609375  0 0 0 0 0.99609375  0 0 0 1 0"
               class="icon-fecolormatrix"
               id="feColorMatrix21" />
          </filter>
          <filter
             id="colors-3">
            <feColorMatrix
               type="matrix"
               values="0 0 0 0 0  0 0 0 0 0  0 0 0 0 0  0 0 0 1 0"
               class="icon-fecolormatrix"
               id="feColorMatrix24" />
          </filter>
        </defs>
      </g>
      <rect
         v-gra="id"
         width="72"
         height="64.362869"
         transform="translate(-6,-6)"
         style="fill:url(#gradient-1)"
         fill="url(#gradient-1)"
         id="rect31"
         x="0"
         y="0" />
    </g>
    <g
       transform="translate(67.000004,0.35443687)"
       id="g51">
      <g
         data-gra="path-name"
         fill-rule=""
         class="tp-name iconsvg-namesvg"
         fill="url(#fill-1)"
         id="g41"
         style="fill:url(#linearGradient131)">
        <g
           id="g39"
           style="fill:url(#linearGradient129)">
          <g
             id="g37"
             style="fill:url(#linearGradient127)">
            <path
               d="M 14.52,0 H 1.1 v -4.09 l 3.3,-0.7 v -26.87 l -3.65,-0.7 v -4.12 h 10.47 v 31.69 l 3.3,0.7 z m 12.95,0.49 v 0 q -3.99,0 -6.27,-2.54 -2.28,-2.53 -2.28,-7.89 v 0 -10.54 l -2.79,-0.7 v -4.12 h 2.79 6.82 v 15.41 q 0,2.71 0.95,3.89 0.95,1.18 2.87,1.18 v 0 q 1.52,0 2.68,-0.59 1.17,-0.6 1.92,-1.7 v 0 -13.37 l -3.01,-0.7 v -4.12 h 3.01 6.83 v 20.51 l 3.04,0.7 V 0 H 35 l -0.46,-3.2 q -1.2,1.77 -3,2.73 -1.8,0.96 -4.07,0.96 z M 59.35,0 H 46.3 v -4.09 l 3.29,-0.7 v -15.69 l -3.64,-0.7 v -4.12 h 9.98 l 0.28,3.34 q 1.22,-1.82 3.05,-2.81 1.84,-1 4.25,-1 v 0 q 2.43,0 4.17,1.08 1.74,1.07 2.61,3.25 v 0 q 1.17,-2.04 3.04,-3.18 1.87,-1.15 4.39,-1.15 v 0 q 3.75,0 5.91,2.55 2.16,2.55 2.16,7.76 v 0 10.67 l 3.3,0.7 V 0 H 76.02 v -4.09 l 2.94,-0.7 v -10.69 q 0,-2.81 -0.92,-3.89 -0.92,-1.09 -2.68,-1.09 v 0 q -1.59,0 -2.69,0.9 -1.1,0.9 -1.59,2.37 v 0 12.4 l 2.76,0.7 V 0 H 61.52 v -4.09 l 2.76,-0.7 v -10.69 q 0,-2.74 -0.92,-3.86 -0.93,-1.12 -2.73,-1.12 v 0 q -1.45,0 -2.5,0.58 -1.05,0.59 -1.73,1.69 v 0 13.4 l 2.95,0.7 z m 45.22,0 h -13.4 v -4.09 l 3.3,-0.7 v -15.69 l -3.65,-0.7 v -4.12 h 10.47 v 20.51 l 3.28,0.7 z m -3.28,-30.65 h -7.06 v -5.83 h 7.06 z m 16.28,31.14 v 0 q -4,0 -6.28,-2.54 -2.28,-2.53 -2.28,-7.89 v 0 -10.54 l -2.78,-0.7 v -4.12 h 2.78 6.83 v 15.41 q 0,2.71 0.94,3.89 0.95,1.18 2.87,1.18 v 0 q 1.52,0 2.69,-0.59 1.17,-0.6 1.92,-1.7 v 0 -13.37 l -3.02,-0.7 v -4.12 h 3.02 6.82 v 20.51 l 3.04,0.7 V 0 h -9.02 l -0.47,-3.2 q -1.19,1.77 -2.99,2.73 -1.8,0.96 -4.07,0.96 z M 149.44,0 h -13.05 v -4.09 l 3.3,-0.7 v -15.69 l -3.65,-0.7 v -4.12 h 9.98 l 0.29,3.34 q 1.21,-1.82 3.05,-2.81 1.83,-1 4.24,-1 v 0 q 2.43,0 4.17,1.08 1.75,1.07 2.61,3.25 v 0 q 1.17,-2.04 3.04,-3.18 1.87,-1.15 4.4,-1.15 v 0 q 3.74,0 5.9,2.55 2.16,2.55 2.16,7.76 v 0 10.67 l 3.3,0.7 V 0 h -13.07 v -4.09 l 2.95,-0.7 v -10.69 q 0,-2.81 -0.93,-3.89 -0.92,-1.09 -2.67,-1.09 v 0 q -1.59,0 -2.69,0.9 -1.1,0.9 -1.59,2.37 v 0 12.4 l 2.76,0.7 V 0 h -12.33 v -4.09 l 2.76,-0.7 v -10.69 q 0,-2.74 -0.92,-3.86 -0.92,-1.12 -2.73,-1.12 v 0 q -1.44,0 -2.5,0.58 -1.05,0.59 -1.73,1.69 v 0 13.4 l 2.95,0.7 z"
               transform="translate(-0.75,36.48)"
               id="path35"
               style="fill:url(#linearGradient125)" />
          </g>
          <!---->
          <!---->
          <!---->
          <!---->
          <!---->
          <!---->
          <!---->
        </g>
      </g>
      <g
         data-gra="path-slogan"
         fill-rule=""
         class="tp-slogan iconsvg-slogansvg"
         fill="url(#color-4)"
         transform="translate(52.899998,42.970001)"
         id="g49"
         style="fill:url(#linearGradient139)">
        <!---->
        <!---->
        <g
           id="g47"
           style="fill:url(#linearGradient137)">
          <g
             id="g45"
             style="fill:url(#linearGradient135)">
            <path
               d="M 0.98,0 V -5.83 H 1.8 l 0.08,0.84 h 0.04 q 0.42,-0.42 0.88,-0.7 0.46,-0.29 1.08,-0.29 v 0 q 0.92,0 1.35,0.58 0.42,0.58 0.42,1.7 v 0 V 0 H 4.67 v -3.56 q 0,-0.83 -0.27,-1.2 -0.26,-0.36 -0.84,-0.36 v 0 q -0.45,0 -0.8,0.22 -0.35,0.23 -0.79,0.68 v 0 V 0 Z m 6.14,-2.9 v 0 q 0,-0.72 0.22,-1.29 0.22,-0.57 0.59,-0.97 0.36,-0.4 0.83,-0.61 0.47,-0.21 0.97,-0.21 v 0 q 0.55,0 0.99,0.2 0.44,0.19 0.73,0.55 0.3,0.36 0.45,0.86 0.16,0.51 0.16,1.13 v 0 q 0,0.32 -0.04,0.54 v 0 H 8.09 q 0.06,0.95 0.58,1.5 0.52,0.55 1.36,0.55 v 0 q 0.42,0 0.78,-0.12 0.35,-0.13 0.67,-0.33 v 0 l 0.35,0.64 q -0.38,0.24 -0.85,0.42 -0.47,0.18 -1.07,0.18 v 0 Q 9.32,0.14 8.81,-0.07 8.3,-0.28 7.93,-0.67 7.55,-1.06 7.33,-1.62 7.12,-2.18 7.12,-2.9 Z m 0.96,-0.45 h 3.12 q 0,-0.9 -0.38,-1.37 Q 10.44,-5.2 9.76,-5.2 v 0 q -0.32,0 -0.6,0.13 -0.28,0.13 -0.51,0.36 -0.23,0.23 -0.38,0.58 -0.15,0.34 -0.19,0.78 z M 12.6,0 14.51,-3.05 12.74,-5.83 h 1.07 l 0.78,1.28 q 0.13,0.24 0.28,0.49 0.14,0.24 0.3,0.48 v 0 h 0.05 q 0.13,-0.24 0.26,-0.48 0.13,-0.25 0.26,-0.49 v 0 l 0.71,-1.28 h 1.03 L 15.72,-2.94 17.62,0 H 16.55 L 15.7,-1.36 Q 15.54,-1.62 15.38,-1.88 15.23,-2.15 15.06,-2.4 v 0 h -0.05 q -0.15,0.25 -0.3,0.51 -0.14,0.26 -0.29,0.53 v 0 L 13.63,0 Z m 6.34,-1.8 v -3.23 h -0.87 v -0.74 l 0.91,-0.06 0.12,-1.63 h 0.83 v 1.63 h 1.57 v 0.8 h -1.57 v 3.24 q 0,0.54 0.2,0.84 0.2,0.29 0.7,0.29 v 0 q 0.16,0 0.34,-0.05 0.18,-0.05 0.32,-0.11 v 0 l 0.19,0.75 Q 21.44,0.01 21.16,0.08 20.88,0.14 20.6,0.14 v 0 Q 20.14,0.14 19.82,0 19.5,-0.14 19.3,-0.4 19.1,-0.65 19.02,-1.01 18.94,-1.37 18.94,-1.8 Z m 6.31,0.62 v -7.36 h 0.98 v 7.44 q 0,0.24 0.09,0.33 0.08,0.1 0.19,0.1 v 0 q 0.05,0 0.09,0 0.04,0 0.12,-0.03 v 0 l 0.14,0.75 Q 26.76,0.1 26.63,0.12 26.5,0.14 26.29,0.14 v 0 q -0.56,0 -0.8,-0.33 -0.24,-0.34 -0.24,-0.99 z m 2.63,-1.72 v 0 q 0,-0.72 0.22,-1.29 0.22,-0.57 0.59,-0.97 0.36,-0.4 0.83,-0.61 0.47,-0.21 0.97,-0.21 v 0 q 0.55,0 0.99,0.2 0.44,0.19 0.73,0.55 0.3,0.36 0.45,0.86 0.16,0.51 0.16,1.13 v 0 q 0,0.32 -0.04,0.54 v 0 h -3.93 q 0.06,0.95 0.58,1.5 0.52,0.55 1.36,0.55 v 0 q 0.42,0 0.78,-0.12 0.35,-0.13 0.67,-0.33 v 0 l 0.35,0.64 q -0.38,0.24 -0.85,0.42 -0.47,0.18 -1.07,0.18 v 0 q -0.59,0 -1.1,-0.21 -0.51,-0.21 -0.88,-0.6 -0.38,-0.39 -0.6,-0.95 -0.21,-0.56 -0.21,-1.28 z m 0.96,-0.45 h 3.12 q 0,-0.9 -0.38,-1.37 Q 31.2,-5.2 30.52,-5.2 v 0 q -0.32,0 -0.6,0.13 -0.28,0.13 -0.51,0.36 -0.23,0.23 -0.38,0.58 -0.15,0.34 -0.19,0.78 z M 35.58,0 33.48,-5.83 h 1.02 l 1.1,3.31 q 0.14,0.43 0.27,0.86 0.14,0.44 0.27,0.86 v 0 h 0.05 q 0.13,-0.42 0.27,-0.86 0.13,-0.43 0.26,-0.86 v 0 l 1.1,-3.31 H 38.8 L 36.73,0 Z m 3.86,-2.9 v 0 q 0,-0.72 0.23,-1.29 0.22,-0.57 0.58,-0.97 0.37,-0.4 0.84,-0.61 0.47,-0.21 0.97,-0.21 v 0 q 0.55,0 0.99,0.2 0.44,0.19 0.73,0.55 0.3,0.36 0.45,0.86 0.16,0.51 0.16,1.13 v 0 q 0,0.32 -0.04,0.54 v 0 h -3.93 q 0.06,0.95 0.58,1.5 0.52,0.55 1.36,0.55 v 0 q 0.42,0 0.77,-0.12 0.36,-0.13 0.68,-0.33 v 0 l 0.35,0.64 q -0.38,0.24 -0.85,0.42 -0.47,0.18 -1.07,0.18 v 0 q -0.59,0 -1.1,-0.21 -0.51,-0.21 -0.89,-0.6 -0.37,-0.39 -0.59,-0.95 -0.22,-0.56 -0.22,-1.28 z m 0.96,-0.45 h 3.12 q 0,-0.9 -0.37,-1.37 -0.38,-0.48 -1.07,-0.48 v 0 q -0.31,0 -0.59,0.13 -0.28,0.13 -0.51,0.36 -0.23,0.23 -0.38,0.58 -0.15,0.34 -0.2,0.78 z m 5.43,2.17 v -7.36 h 0.98 v 7.44 q 0,0.24 0.09,0.33 0.08,0.1 0.19,0.1 v 0 q 0.05,0 0.09,0 0.04,0 0.12,-0.03 v 0 l 0.14,0.75 q -0.1,0.05 -0.23,0.07 -0.13,0.02 -0.34,0.02 v 0 q -0.56,0 -0.8,-0.33 -0.24,-0.34 -0.24,-0.99 z m 5.06,-1.72 v 0 q 0,-0.71 0.21,-1.28 0.21,-0.57 0.56,-0.97 0.35,-0.39 0.8,-0.61 0.46,-0.22 0.96,-0.22 v 0 q 0.51,0 0.88,0.18 0.37,0.18 0.76,0.5 v 0 l -0.05,-1 V -8.54 H 56 V 0 H 55.19 L 55.1,-0.68 h -0.03 q -0.35,0.33 -0.8,0.58 -0.45,0.24 -0.97,0.24 v 0 q -1.1,0 -1.75,-0.79 -0.66,-0.79 -0.66,-2.25 z m 1.02,-0.02 v 0 q 0,1.06 0.42,1.65 0.42,0.59 1.19,0.59 v 0 q 0.41,0 0.77,-0.2 0.36,-0.2 0.72,-0.61 v 0 -3.05 q -0.37,-0.33 -0.72,-0.47 -0.34,-0.14 -0.7,-0.14 v 0 q -0.35,0 -0.65,0.16 -0.31,0.17 -0.54,0.46 -0.22,0.29 -0.36,0.7 -0.13,0.41 -0.13,0.91 z m 5.63,0.02 v 0 q 0,-0.74 0.22,-1.31 0.22,-0.57 0.6,-0.96 0.37,-0.4 0.85,-0.6 0.49,-0.21 1.03,-0.21 v 0 q 0.54,0 1.03,0.21 0.48,0.2 0.85,0.6 0.38,0.39 0.6,0.96 0.22,0.57 0.22,1.31 v 0 q 0,0.72 -0.22,1.29 -0.22,0.57 -0.6,0.96 -0.37,0.39 -0.85,0.59 -0.49,0.2 -1.03,0.2 v 0 q -0.54,0 -1.03,-0.2 -0.48,-0.2 -0.85,-0.59 -0.38,-0.39 -0.6,-0.96 -0.22,-0.57 -0.22,-1.29 z m 1.02,0 v 0 q 0,0.5 0.12,0.91 0.12,0.41 0.34,0.7 0.22,0.29 0.54,0.46 0.31,0.16 0.68,0.16 v 0 q 0.37,0 0.68,-0.16 0.32,-0.17 0.54,-0.46 0.22,-0.29 0.34,-0.7 0.12,-0.41 0.12,-0.91 v 0 q 0,-0.51 -0.12,-0.92 -0.12,-0.42 -0.34,-0.72 -0.22,-0.3 -0.54,-0.46 -0.31,-0.16 -0.68,-0.16 v 0 q -0.37,0 -0.68,0.16 -0.32,0.16 -0.54,0.46 -0.22,0.3 -0.34,0.72 -0.12,0.41 -0.12,0.92 z m 5.48,0 v 0 q 0,-0.74 0.23,-1.31 0.23,-0.57 0.61,-0.96 0.39,-0.4 0.9,-0.6 0.51,-0.21 1.07,-0.21 v 0 q 0.58,0 0.99,0.21 0.42,0.21 0.72,0.49 v 0 l -0.5,0.64 Q 67.8,-4.87 67.52,-5.02 67.24,-5.16 66.89,-5.16 v 0 q -0.4,0 -0.73,0.16 -0.34,0.16 -0.58,0.46 -0.24,0.3 -0.38,0.72 -0.14,0.41 -0.14,0.92 v 0 q 0,0.5 0.14,0.91 0.13,0.41 0.36,0.7 0.24,0.29 0.57,0.46 0.34,0.16 0.73,0.16 v 0 q 0.42,0 0.77,-0.18 0.34,-0.17 0.6,-0.41 v 0 l 0.45,0.65 q -0.4,0.35 -0.89,0.55 -0.48,0.2 -1.01,0.2 v 0 q -0.58,0 -1.08,-0.2 -0.5,-0.2 -0.87,-0.59 -0.37,-0.39 -0.58,-0.96 -0.21,-0.57 -0.21,-1.29 z m 5.26,2.24 0.49,-0.66 q 0.39,0.31 0.79,0.5 0.4,0.2 0.93,0.2 v 0 q 0.57,0 0.86,-0.27 0.29,-0.26 0.29,-0.65 v 0 q 0,-0.22 -0.12,-0.39 -0.12,-0.17 -0.31,-0.3 -0.18,-0.12 -0.42,-0.22 -0.24,-0.09 -0.48,-0.19 v 0 Q 71.02,-2.75 70.7,-2.89 70.39,-3.02 70.15,-3.22 69.9,-3.42 69.74,-3.68 69.59,-3.95 69.59,-4.32 v 0 q 0,-0.35 0.14,-0.65 0.13,-0.31 0.39,-0.53 0.26,-0.22 0.63,-0.35 0.37,-0.13 0.84,-0.13 v 0 q 0.55,0 1.02,0.2 0.46,0.19 0.79,0.46 v 0 l -0.46,0.63 q -0.3,-0.23 -0.63,-0.37 -0.32,-0.15 -0.71,-0.15 v 0 q -0.55,0 -0.81,0.25 -0.25,0.26 -0.25,0.59 v 0 q 0,0.21 0.1,0.36 0.11,0.15 0.29,0.26 0.18,0.11 0.42,0.2 0.23,0.09 0.48,0.19 v 0 q 0.31,0.12 0.63,0.25 0.32,0.13 0.57,0.33 0.25,0.2 0.42,0.49 0.16,0.29 0.16,0.69 v 0 q 0,0.36 -0.14,0.68 -0.14,0.31 -0.41,0.55 -0.27,0.24 -0.67,0.38 -0.4,0.13 -0.92,0.13 v 0 q -0.62,0 -1.19,-0.22 -0.56,-0.23 -0.98,-0.58 z"
               transform="translate(-0.984,8.544)"
               id="path43"
               style="fill:url(#linearGradient133)" />
          </g>
        </g>
      </g>
    </g>
  </g>
  <defs
     v-gra="od"
     id="defs72">
    <linearGradient
       x1="0"
       y1="1"
       x2="0"
       y2="0"
       id="color-4">
      <stop
         offset="0%"
         stop-color="#e16df5"
         id="stop55" />
      <stop
         offset="100%"
         stop-color="#4ef8e7"
         id="stop57" />
    </linearGradient>
    <filter
       id="filter-1"
       filterUnits="userSpaceOnUse">
      <feColorMatrix
         type="matrix"
         values="0 0 0 0 0.99609375  0 0 0 0 0.99609375  0 0 0 0 0.99609375  0 0 0 1 0"
         id="feColorMatrix60" />
    </filter>
    <linearGradient
       x1="0"
       y1="1"
       x2="0"
       y2="0"
       id="fill-1">
      <stop
         offset="0%"
         stop-color="#e16df5"
         id="stop63" />
      <stop
         offset="100%"
         stop-color="#4ef8e7"
         id="stop65" />
    </linearGradient>
    <filter
       id="filter70"
       filterUnits="userSpaceOnUse">
      <feColorMatrix
         type="matrix"
         values="0 0 0 0 0.99609375  0 0 0 0 0.99609375  0 0 0 0 0.99609375  0 0 0 1 0"
         id="feColorMatrix68" />
    </filter>
    <linearGradient
       inkscape:collect="always"
       xlink:href="#fill-1"
       id="linearGradient125"
       x1="0.34139099"
       y1="1.0764783"
       x2="0.34139099"
       y2="-80.142713"
       gradientTransform="scale(2.1968946,0.45518798)"
       gradientUnits="userSpaceOnUse" />
    <linearGradient
       inkscape:collect="always"
       xlink:href="#fill-1"
       id="linearGradient127"
       x1="0"
       y1="81.219191"
       x2="0"
       y2="-1.0056585e-06"
       gradientTransform="scale(2.1968946,0.45518798)"
       gradientUnits="userSpaceOnUse" />
    <linearGradient
       inkscape:collect="always"
       xlink:href="#fill-1"
       id="linearGradient129"
       x1="0"
       y1="81.219191"
       x2="0"
       y2="-1.0056585e-06"
       gradientTransform="scale(2.1968946,0.45518798)"
       gradientUnits="userSpaceOnUse" />
    <linearGradient
       inkscape:collect="always"
       xlink:href="#fill-1"
       id="linearGradient131"
       x1="0"
       y1="81.219191"
       x2="0"
       y2="-1.0056585e-06"
       gradientTransform="scale(2.1968946,0.45518798)"
       gradientUnits="userSpaceOnUse" />
    <linearGradient
       inkscape:collect="always"
       xlink:href="#color-4"
       id="linearGradient133"
       x1="0.33878792"
       y1="0.40497312"
       x2="0.33878792"
       y2="-24.70336"
       gradientTransform="scale(2.8926651,0.34570196)"
       gradientUnits="userSpaceOnUse" />
    <linearGradient
       inkscape:collect="always"
       xlink:href="#color-4"
       id="linearGradient135"
       x1="-0.0013828078"
       y1="25.119904"
       x2="-0.0013828078"
       y2="0.01157066"
       gradientTransform="scale(2.8926651,0.34570196)"
       gradientUnits="userSpaceOnUse" />
    <linearGradient
       inkscape:collect="always"
       xlink:href="#color-4"
       id="linearGradient137"
       x1="-0.0013828078"
       y1="25.119904"
       x2="-0.0013828078"
       y2="0.01157066"
       gradientTransform="scale(2.8926651,0.34570196)"
       gradientUnits="userSpaceOnUse" />
    <linearGradient
       inkscape:collect="always"
       xlink:href="#color-4"
       id="linearGradient139"
       x1="-0.0013828078"
       y1="25.119904"
       x2="-0.0013828078"
       y2="0.01157066"
       gradientTransform="scale(2.8926651,0.34570196)"
       gradientUnits="userSpaceOnUse" />
  </defs>
  <defs
     v-gra="id"
     id="defs86">
    <filter
       id="color-5"
       filterUnits="userSpaceOnUse">
      <feColorMatrix
         type="matrix"
         values="0 0 0 0 0.99609375  0 0 0 0 0.99609375  0 0 0 0 0.99609375  0 0 0 1 0"
         id="feColorMatrix74" />
    </filter>
    <linearGradient
       x1="0"
       y1="68.074419"
       x2="0"
       y2="0"
       id="gradient-1"
       gradientTransform="scale(1.057666,0.94547805)"
       gradientUnits="userSpaceOnUse">
      <stop
         offset="0%"
         stop-color="#e16df5"
         id="stop77" />
      <stop
         offset="100%"
         stop-color="#4ef8e7"
         id="stop79" />
    </linearGradient>
    <filter
       id="filter84"
       filterUnits="userSpaceOnUse">
      <feColorMatrix
         type="matrix"
         values="0 0 0 0 0.99609375  0 0 0 0 0.99609375  0 0 0 0 0.99609375  0 0 0 1 0"
         id="feColorMatrix82" />
    </filter>
  </defs>
  <mask
     v-gra="im"
     id="mask-1">
    <g
       class="iconsvg-imagesvg"
       filter="url(#color-5)"
       id="g118">
      <g
         id="g116">
        <rect
           fill="#e16df5"
           fill-opacity="0"
           stroke-width="2"
           x="0"
           y="0"
           width="60"
           height="52.36287472182222"
           class="image-rect"
           id="rect88" />
        <svg
           x="0"
           y="0"
           width="60"
           height="52.36287472182222"
           filtersec="colors-2"
           class="image-svg-svg primary"
           style="overflow: visible;"
           version="1.1"
           id="svg100">
          <svg
             viewBox="-0.004939851351082325 6.360109329223633 100.0098648071289 87.27989959716797"
             x="0px"
             y="0px"
             version="1.1"
             id="svg98">
            <defs
               id="defs90" />
            <title
               id="title92">Lambda-Oxygen-1</title>
            <path
               d="M41.34,41.17a2.5,2.5,0,0,0,0,5c3.8,0,5.21,2.42,6.66,5.59l.24.51c.2.43.63,1.39,1.21,2.67L35.8,79.1a2.5,2.5,0,0,0,4.35,2.46L52,60.63c3.17,7.16,7.16,16.19,7.23,16.34a9.47,9.47,0,0,0,11.56,5.43,2.5,2.5,0,0,0-1.48-4.78,4.48,4.48,0,0,1-5.51-2.7c-.4-.9-9.74-22.09-11-24.78l-.22-.48C51.29,46.92,48.66,41.17,41.34,41.17Z"
               id="path94" />
            <path
               d="M99.67,89.89,52.17,7.61a2.5,2.5,0,0,0-4.33,0L.33,89.89A2.5,2.5,0,0,0,2.5,93.64h95a2.5,2.5,0,0,0,2.17-3.75ZM6.83,88.64,50,13.86,93.17,88.64Z"
               id="path96" />
          </svg>
        </svg>
        <defs
           id="defs114">
          <filter
             id="filter104">
            <feColorMatrix
               type="matrix"
               values="0 0 0 0 0.87890625  0 0 0 0 0.42578125  0 0 0 0 0.95703125  0 0 0 1 0"
               class="icon-fecolormatrix"
               id="feColorMatrix102" />
          </filter>
          <filter
             id="filter108">
            <feColorMatrix
               type="matrix"
               values="0 0 0 0 0.99609375  0 0 0 0 0.99609375  0 0 0 0 0.99609375  0 0 0 1 0"
               class="icon-fecolormatrix"
               id="feColorMatrix106" />
          </filter>
          <filter
             id="filter112">
            <feColorMatrix
               type="matrix"
               values="0 0 0 0 0  0 0 0 0 0  0 0 0 0 0  0 0 0 1 0"
               class="icon-fecolormatrix"
               id="feColorMatrix110" />
          </filter>
        </defs>
      </g>
    </g>
  </mask>
</svg>
