<svg
    width="100%"
    viewBox="0 0 340.000000 250.000000"
    >
    <rect x="0" y="0" width="100%" height="100%" fill="#0a0619" fill-opacity="1" class="background"></rect>
    <g fill="#e16df5" class="icon-text-wrapper icon-svg-group iconsvg" transform="translate(47.285003662109375,98.81856346130371)">
    <g class="iconsvg-imagesvg" transform="translate(0,0)" mask="url(#mask-1)">
    <g>
    <rect fill="#e16df5" fill-opacity="0" stroke-width="2" x="0" y="0" width="60" height="52.36287472182222" class="image-rect"></rect>
    <svg filter="url(#colors-1)" x="0" y="0" width="60" height="52.36287472182222" filtersec="colors-2" class="image-svg-svg primary" style="overflow: visible;">
      <svg viewBox="-0.004939851351082325 6.360109329223633 100.0098648071289 87.27989959716797" x="0px" y="0px">
        <defs></defs>
        <title>Lambda-Oxygen-1</title>
        <path
            d="M41.34,41.17a2.5,2.5,0,0,0,0,5c3.8,0,5.21,2.42,6.66,5.59l.24.51c.2.43.63,1.39,1.21,2.67L35.8,79.1a2.5,2.5,0,0,0,4.35,2.46L52,60.63c3.17,7.16,7.16,16.19,7.23,16.34a9.47,9.47,0,0,0,11.56,5.43,2.5,2.5,0,0,0-1.48-4.78,4.48,4.48,0,0,1-5.51-2.7c-.4-.9-9.74-22.09-11-24.78l-.22-.48C51.29,46.92,48.66,41.17,41.34,41.17Z"
            ></path>
        <path d="M99.67,89.89,52.17,7.61a2.5,2.5,0,0,0-4.33,0L.33,89.89A2.5,2.5,0,0,0,2.5,93.64h95a2.5,2.5,0,0,0,2.17-3.75ZM6.83,88.64,50,13.86,93.17,88.64Z"></path>
      </svg>
    </svg>
    <defs>
    <filter id="colors-1"><feColorMatrix type="matrix" values="0 0 0 0 0.87890625  0 0 0 0 0.42578125  0 0 0 0 0.95703125  0 0 0 1 0" class="icon-fecolormatrix"></feColorMatrix></filter>
    <filter id="colors-2"><feColorMatrix type="matrix" values="0 0 0 0 0.99609375  0 0 0 0 0.99609375  0 0 0 0 0.99609375  0 0 0 1 0" class="icon-fecolormatrix"></feColorMatrix></filter>
    <filter id="colors-3"><feColorMatrix type="matrix" values="0 0 0 0 0  0 0 0 0 0  0 0 0 0 0  0 0 0 1 0" class="icon-fecolormatrix"></feColorMatrix></filter>
    </defs>
    </g>
    <rect v-gra="id" width="72.00000381469727" height="64.36287307739258" transform="translate(-6, -6)" style="pointer-events: none;" fill="url(#gradient-1)"></rect>
    </g>
    <g transform="translate(67.00000381469727,0.35443687438964844)">
    <g data-gra="path-name" fill-rule="" class="tp-name iconsvg-namesvg" transform="translate(0,0)" fill="url(#fill-1)">
    <g transform="scale(1)">
    <g>
    <path
        d="M14.52 0L1.1 0 1.1-4.09 4.4-4.79 4.4-31.66 0.75-32.36 0.75-36.48 11.22-36.48 11.22-4.79 14.52-4.09 14.52 0ZM27.47 0.49L27.47 0.49Q23.48 0.49 21.2-2.05 18.92-4.58 18.92-9.94L18.92-9.94 18.92-20.48 16.13-21.18 16.13-25.3 18.92-25.3 25.74-25.3 25.74-9.89Q25.74-7.18 26.69-6 27.64-4.82 29.56-4.82L29.56-4.82Q31.08-4.82 32.24-5.41 33.41-6.01 34.16-7.11L34.16-7.11 34.16-20.48 31.15-21.18 31.15-25.3 34.16-25.3 40.99-25.3 40.99-4.79 44.03-4.09 44.03 0 35 0 34.54-3.2Q33.34-1.43 31.54-0.47 29.74 0.49 27.47 0.49ZM59.35 0L46.3 0 46.3-4.09 49.59-4.79 49.59-20.48 45.95-21.18 45.95-25.3 55.93-25.3 56.21-21.96Q57.43-23.78 59.26-24.77 61.1-25.77 63.51-25.77L63.51-25.77Q65.94-25.77 67.68-24.69 69.42-23.62 70.29-21.44L70.29-21.44Q71.46-23.48 73.33-24.62 75.2-25.77 77.72-25.77L77.72-25.77Q81.47-25.77 83.63-23.22 85.79-20.67 85.79-15.46L85.79-15.46 85.79-4.79 89.09-4.09 89.09 0 76.02 0 76.02-4.09 78.96-4.79 78.96-15.48Q78.96-18.29 78.04-19.37 77.12-20.46 75.36-20.46L75.36-20.46Q73.77-20.46 72.67-19.56 71.57-18.66 71.08-17.19L71.08-17.19 71.08-4.79 73.84-4.09 73.84 0 61.52 0 61.52-4.09 64.28-4.79 64.28-15.48Q64.28-18.22 63.36-19.34 62.43-20.46 60.63-20.46L60.63-20.46Q59.18-20.46 58.13-19.88 57.08-19.29 56.4-18.19L56.4-18.19 56.4-4.79 59.35-4.09 59.35 0ZM104.57 0L91.17 0 91.17-4.09 94.47-4.79 94.47-20.48 90.82-21.18 90.82-25.3 101.29-25.3 101.29-4.79 104.57-4.09 104.57 0ZM101.29-30.65L94.23-30.65 94.23-36.48 101.29-36.48 101.29-30.65ZM117.57 0.49L117.57 0.49Q113.57 0.49 111.29-2.05 109.01-4.58 109.01-9.94L109.01-9.94 109.01-20.48 106.23-21.18 106.23-25.3 109.01-25.3 115.84-25.3 115.84-9.89Q115.84-7.18 116.78-6 117.73-4.82 119.65-4.82L119.65-4.82Q121.17-4.82 122.34-5.41 123.51-6.01 124.26-7.11L124.26-7.11 124.26-20.48 121.24-21.18 121.24-25.3 124.26-25.3 131.08-25.3 131.08-4.79 134.12-4.09 134.12 0 125.1 0 124.63-3.2Q123.44-1.43 121.64-0.47 119.84 0.49 117.57 0.49ZM149.44 0L136.39 0 136.39-4.09 139.69-4.79 139.69-20.48 136.04-21.18 136.04-25.3 146.02-25.3 146.31-21.96Q147.52-23.78 149.36-24.77 151.19-25.77 153.6-25.77L153.6-25.77Q156.03-25.77 157.77-24.69 159.52-23.62 160.38-21.44L160.38-21.44Q161.55-23.48 163.42-24.62 165.29-25.77 167.82-25.77L167.82-25.77Q171.56-25.77 173.72-23.22 175.88-20.67 175.88-15.46L175.88-15.46 175.88-4.79 179.18-4.09 179.18 0 166.11 0 166.11-4.09 169.06-4.79 169.06-15.48Q169.06-18.29 168.13-19.37 167.21-20.46 165.46-20.46L165.46-20.46Q163.87-20.46 162.77-19.56 161.67-18.66 161.18-17.19L161.18-17.19 161.18-4.79 163.94-4.09 163.94 0 151.61 0 151.61-4.09 154.37-4.79 154.37-15.48Q154.37-18.22 153.45-19.34 152.53-20.46 150.72-20.46L150.72-20.46Q149.28-20.46 148.22-19.88 147.17-19.29 146.49-18.19L146.49-18.19 146.49-4.79 149.44-4.09 149.44 0Z"
        transform="translate(-0.75, 36.47999954223633)"
        ></path>
    </g>
    <!---->
    <!---->
    <!---->
    <!---->
    <!---->
    <!---->
    <!---->
    </g>
    </g>
    <g data-gra="path-slogan" fill-rule="" class="tp-slogan iconsvg-slogansvg" fill="url(#color-4)" transform="translate(52.89999771118164,42.970001220703125)">
    <!---->
    <!---->
    <g transform="scale(1, 1)">
    <g transform="scale(1)">
    <path
        d="M0.98 0L0.98-5.83L1.80-5.83L1.88-4.99L1.92-4.99Q2.34-5.41 2.80-5.69Q3.26-5.98 3.88-5.98L3.88-5.98Q4.80-5.98 5.23-5.40Q5.65-4.82 5.65-3.70L5.65-3.70L5.65 0L4.67 0L4.67-3.56Q4.67-4.39 4.40-4.76Q4.14-5.12 3.56-5.12L3.56-5.12Q3.11-5.12 2.76-4.90Q2.41-4.67 1.97-4.22L1.97-4.22L1.97 0L0.98 0ZM7.12-2.90L7.12-2.90Q7.12-3.62 7.34-4.19Q7.56-4.76 7.93-5.16Q8.29-5.56 8.76-5.77Q9.23-5.98 9.73-5.98L9.73-5.98Q10.28-5.98 10.72-5.78Q11.16-5.59 11.45-5.23Q11.75-4.87 11.90-4.37Q12.06-3.86 12.06-3.24L12.06-3.24Q12.06-2.92 12.02-2.70L12.02-2.70L8.09-2.70Q8.15-1.75 8.67-1.20Q9.19-0.65 10.03-0.65L10.03-0.65Q10.45-0.65 10.81-0.77Q11.16-0.90 11.48-1.10L11.48-1.10L11.83-0.46Q11.45-0.22 10.98-0.04Q10.51 0.14 9.91 0.14L9.91 0.14Q9.32 0.14 8.81-0.07Q8.30-0.28 7.93-0.67Q7.55-1.06 7.33-1.62Q7.12-2.18 7.12-2.90ZM8.08-3.35L11.20-3.35Q11.20-4.25 10.82-4.72Q10.44-5.20 9.76-5.20L9.76-5.20Q9.44-5.20 9.16-5.07Q8.88-4.94 8.65-4.71Q8.42-4.48 8.27-4.13Q8.12-3.79 8.08-3.35L8.08-3.35ZM12.60 0L14.51-3.05L12.74-5.83L13.81-5.83L14.59-4.55Q14.72-4.31 14.87-4.06Q15.01-3.82 15.17-3.58L15.17-3.58L15.22-3.58Q15.35-3.82 15.48-4.06Q15.61-4.31 15.74-4.55L15.74-4.55L16.45-5.83L17.48-5.83L15.72-2.94L17.62 0L16.55 0L15.70-1.36Q15.54-1.62 15.38-1.88Q15.23-2.15 15.06-2.40L15.06-2.40L15.01-2.40Q14.86-2.15 14.71-1.89Q14.57-1.63 14.42-1.36L14.42-1.36L13.63 0L12.60 0ZM18.94-1.80L18.94-5.03L18.07-5.03L18.07-5.77L18.98-5.83L19.10-7.46L19.93-7.46L19.93-5.83L21.50-5.83L21.50-5.03L19.93-5.03L19.93-1.79Q19.93-1.25 20.13-0.95Q20.33-0.66 20.83-0.66L20.83-0.66Q20.99-0.66 21.17-0.71Q21.35-0.76 21.49-0.82L21.49-0.82L21.68-0.07Q21.44 0.01 21.16 0.08Q20.88 0.14 20.60 0.14L20.60 0.14Q20.14 0.14 19.82 0Q19.50-0.14 19.30-0.40Q19.10-0.65 19.02-1.01Q18.94-1.37 18.94-1.80L18.94-1.80ZM25.25-1.18L25.25-8.54L26.23-8.54L26.23-1.10Q26.23-0.86 26.32-0.77Q26.40-0.67 26.51-0.67L26.51-0.67Q26.56-0.67 26.60-0.67Q26.64-0.67 26.72-0.70L26.72-0.70L26.86 0.05Q26.76 0.10 26.63 0.12Q26.50 0.14 26.29 0.14L26.29 0.14Q25.73 0.14 25.49-0.19Q25.25-0.53 25.25-1.18L25.25-1.18ZM27.88-2.90L27.88-2.90Q27.88-3.62 28.10-4.19Q28.32-4.76 28.69-5.16Q29.05-5.56 29.52-5.77Q29.99-5.98 30.49-5.98L30.49-5.98Q31.04-5.98 31.48-5.78Q31.92-5.59 32.21-5.23Q32.51-4.87 32.66-4.37Q32.82-3.86 32.82-3.24L32.82-3.24Q32.82-2.92 32.78-2.70L32.78-2.70L28.85-2.70Q28.91-1.75 29.43-1.20Q29.95-0.65 30.79-0.65L30.79-0.65Q31.21-0.65 31.57-0.77Q31.92-0.90 32.24-1.10L32.24-1.10L32.59-0.46Q32.21-0.22 31.74-0.04Q31.27 0.14 30.67 0.14L30.67 0.14Q30.08 0.14 29.57-0.07Q29.06-0.28 28.69-0.67Q28.31-1.06 28.09-1.62Q27.88-2.18 27.88-2.90ZM28.84-3.35L31.96-3.35Q31.96-4.25 31.58-4.72Q31.20-5.20 30.52-5.20L30.52-5.20Q30.20-5.20 29.92-5.07Q29.64-4.94 29.41-4.71Q29.18-4.48 29.03-4.13Q28.88-3.79 28.84-3.35L28.84-3.35ZM35.58 0L33.48-5.83L34.50-5.83L35.60-2.52Q35.74-2.09 35.87-1.66Q36.01-1.22 36.14-0.80L36.14-0.80L36.19-0.80Q36.32-1.22 36.46-1.66Q36.59-2.09 36.72-2.52L36.72-2.52L37.82-5.83L38.80-5.83L36.73 0L35.58 0ZM39.44-2.90L39.44-2.90Q39.44-3.62 39.67-4.19Q39.89-4.76 40.25-5.16Q40.62-5.56 41.09-5.77Q41.56-5.98 42.06-5.98L42.06-5.98Q42.61-5.98 43.05-5.78Q43.49-5.59 43.78-5.23Q44.08-4.87 44.23-4.37Q44.39-3.86 44.39-3.24L44.39-3.24Q44.39-2.92 44.35-2.70L44.35-2.70L40.42-2.70Q40.48-1.75 41.00-1.20Q41.52-0.65 42.36-0.65L42.36-0.65Q42.78-0.65 43.13-0.77Q43.49-0.90 43.81-1.10L43.81-1.10L44.16-0.46Q43.78-0.22 43.31-0.04Q42.84 0.14 42.24 0.14L42.24 0.14Q41.65 0.14 41.14-0.07Q40.63-0.28 40.25-0.67Q39.88-1.06 39.66-1.62Q39.44-2.18 39.44-2.90ZM40.40-3.35L43.52-3.35Q43.52-4.25 43.15-4.72Q42.77-5.20 42.08-5.20L42.08-5.20Q41.77-5.20 41.49-5.07Q41.21-4.94 40.98-4.71Q40.75-4.48 40.60-4.13Q40.45-3.79 40.40-3.35L40.40-3.35ZM45.83-1.18L45.83-8.54L46.81-8.54L46.81-1.10Q46.81-0.86 46.90-0.77Q46.98-0.67 47.09-0.67L47.09-0.67Q47.14-0.67 47.18-0.67Q47.22-0.67 47.30-0.70L47.30-0.70L47.44 0.05Q47.34 0.10 47.21 0.12Q47.08 0.14 46.87 0.14L46.87 0.14Q46.31 0.14 46.07-0.19Q45.83-0.53 45.83-1.18L45.83-1.18ZM50.89-2.90L50.89-2.90Q50.89-3.61 51.10-4.18Q51.31-4.75 51.66-5.15Q52.01-5.54 52.46-5.76Q52.92-5.98 53.42-5.98L53.42-5.98Q53.93-5.98 54.30-5.80Q54.67-5.62 55.06-5.30L55.06-5.30L55.01-6.30L55.01-8.54L56.00-8.54L56.00 0L55.19 0L55.10-0.68L55.07-0.68Q54.72-0.35 54.27-0.10Q53.82 0.14 53.30 0.14L53.30 0.14Q52.20 0.14 51.55-0.65Q50.89-1.44 50.89-2.90ZM51.91-2.92L51.91-2.92Q51.91-1.86 52.33-1.27Q52.75-0.68 53.52-0.68L53.52-0.68Q53.93-0.68 54.29-0.88Q54.65-1.08 55.01-1.49L55.01-1.49L55.01-4.54Q54.64-4.87 54.29-5.01Q53.95-5.15 53.59-5.15L53.59-5.15Q53.24-5.15 52.94-4.99Q52.63-4.82 52.40-4.53Q52.18-4.24 52.04-3.83Q51.91-3.42 51.91-2.92ZM57.54-2.90L57.54-2.90Q57.54-3.64 57.76-4.21Q57.98-4.78 58.36-5.17Q58.73-5.57 59.21-5.77Q59.70-5.98 60.24-5.98L60.24-5.98Q60.78-5.98 61.27-5.77Q61.75-5.57 62.12-5.17Q62.50-4.78 62.72-4.21Q62.94-3.64 62.94-2.90L62.94-2.90Q62.94-2.18 62.72-1.61Q62.50-1.04 62.12-0.65Q61.75-0.26 61.27-0.06Q60.78 0.14 60.24 0.14L60.24 0.14Q59.70 0.14 59.21-0.06Q58.73-0.26 58.36-0.65Q57.98-1.04 57.76-1.61Q57.54-2.18 57.54-2.90ZM58.56-2.90L58.56-2.90Q58.56-2.40 58.68-1.99Q58.80-1.58 59.02-1.29Q59.24-1.00 59.56-0.83Q59.87-0.67 60.24-0.67L60.24-0.67Q60.61-0.67 60.92-0.83Q61.24-1.00 61.46-1.29Q61.68-1.58 61.80-1.99Q61.92-2.40 61.92-2.90L61.92-2.90Q61.92-3.41 61.80-3.82Q61.68-4.24 61.46-4.54Q61.24-4.84 60.92-5.00Q60.61-5.16 60.24-5.16L60.24-5.16Q59.87-5.16 59.56-5.00Q59.24-4.84 59.02-4.54Q58.80-4.24 58.68-3.82Q58.56-3.41 58.56-2.90ZM64.04-2.90L64.04-2.90Q64.04-3.64 64.27-4.21Q64.50-4.78 64.88-5.17Q65.27-5.57 65.78-5.77Q66.29-5.98 66.85-5.98L66.85-5.98Q67.43-5.98 67.84-5.77Q68.26-5.56 68.56-5.28L68.56-5.28L68.06-4.64Q67.80-4.87 67.52-5.02Q67.24-5.16 66.89-5.16L66.89-5.16Q66.49-5.16 66.16-5.00Q65.82-4.84 65.58-4.54Q65.34-4.24 65.20-3.82Q65.06-3.41 65.06-2.90L65.06-2.90Q65.06-2.40 65.20-1.99Q65.33-1.58 65.56-1.29Q65.80-1.00 66.13-0.83Q66.47-0.67 66.86-0.67L66.86-0.67Q67.28-0.67 67.63-0.85Q67.97-1.02 68.23-1.26L68.23-1.26L68.68-0.61Q68.28-0.26 67.79-0.06Q67.31 0.14 66.78 0.14L66.78 0.14Q66.20 0.14 65.70-0.06Q65.20-0.26 64.83-0.65Q64.46-1.04 64.25-1.61Q64.04-2.18 64.04-2.90ZM69.30-0.66L69.79-1.32Q70.18-1.01 70.58-0.82Q70.98-0.62 71.51-0.62L71.51-0.62Q72.08-0.62 72.37-0.89Q72.66-1.15 72.66-1.54L72.66-1.54Q72.66-1.76 72.54-1.93Q72.42-2.10 72.23-2.23Q72.05-2.35 71.81-2.45Q71.57-2.54 71.33-2.64L71.33-2.64Q71.02-2.75 70.70-2.89Q70.39-3.02 70.15-3.22Q69.90-3.42 69.74-3.68Q69.59-3.95 69.59-4.32L69.59-4.32Q69.59-4.67 69.73-4.97Q69.86-5.28 70.12-5.50Q70.38-5.72 70.75-5.85Q71.12-5.98 71.59-5.98L71.59-5.98Q72.14-5.98 72.61-5.78Q73.07-5.59 73.40-5.32L73.40-5.32L72.94-4.69Q72.64-4.92 72.31-5.06Q71.99-5.21 71.60-5.21L71.60-5.21Q71.05-5.21 70.79-4.96Q70.54-4.70 70.54-4.37L70.54-4.37Q70.54-4.16 70.64-4.01Q70.75-3.86 70.93-3.75Q71.11-3.64 71.35-3.55Q71.58-3.46 71.83-3.36L71.83-3.36Q72.14-3.24 72.46-3.11Q72.78-2.98 73.03-2.78Q73.28-2.58 73.45-2.29Q73.61-2.00 73.61-1.60L73.61-1.60Q73.61-1.24 73.47-0.92Q73.33-0.61 73.06-0.37Q72.79-0.13 72.39 0.01Q71.99 0.14 71.47 0.14L71.47 0.14Q70.85 0.14 70.28-0.08Q69.72-0.31 69.30-0.66L69.30-0.66Z"
        transform="translate(-0.984, 8.544)"
        ></path>
    </g>
    </g>
    </g>
    </g>
    </g>
    <defs v-gra="od">
    <linearGradient x1="0" y1="1" x2="0" y2="0" id="color-4">
    <stop offset="0%" stop-color="#e16df5"></stop>
    <stop offset="100%" stop-color="#4ef8e7"></stop>
    </linearGradient>
    <filter id="filter-1" filterUnits="userSpaceOnUse"><feColorMatrix type="matrix" values="0 0 0 0 0.99609375  0 0 0 0 0.99609375  0 0 0 0 0.99609375  0 0 0 1 0"></feColorMatrix></filter>
    <linearGradient x1="0" y1="1" x2="0" y2="0" id="fill-1">
    <stop offset="0%" stop-color="#e16df5"></stop>
    <stop offset="100%" stop-color="#4ef8e7"></stop>
    </linearGradient>
    <filter id="filter-1" filterUnits="userSpaceOnUse"><feColorMatrix type="matrix" values="0 0 0 0 0.99609375  0 0 0 0 0.99609375  0 0 0 0 0.99609375  0 0 0 1 0"></feColorMatrix></filter>
    </defs>
    <defs v-gra="id">
    <filter id="color-5" filterUnits="userSpaceOnUse"><feColorMatrix type="matrix" values="0 0 0 0 0.99609375  0 0 0 0 0.99609375  0 0 0 0 0.99609375  0 0 0 1 0"></feColorMatrix></filter>
    <linearGradient x1="0" y1="1" x2="0" y2="0" id="gradient-1">
    <stop offset="0%" stop-color="#e16df5"></stop>
    <stop offset="100%" stop-color="#4ef8e7"></stop>
    </linearGradient>
    <filter id="filter-1" filterUnits="userSpaceOnUse"><feColorMatrix type="matrix" values="0 0 0 0 0.99609375  0 0 0 0 0.99609375  0 0 0 0 0.99609375  0 0 0 1 0"></feColorMatrix></filter>
    </defs>
    <mask v-gra="im" id="mask-1">
    <g class="iconsvg-imagesvg" filter="url(#color-5)">
    <g>
    <rect fill="#e16df5" fill-opacity="0" stroke-width="2" x="0" y="0" width="60" height="52.36287472182222" class="image-rect"></rect>
    <svg x="0" y="0" width="60" height="52.36287472182222" filtersec="colors-2" class="image-svg-svg primary" style="overflow: visible;">
      <svg viewBox="-0.004939851351082325 6.360109329223633 100.0098648071289 87.27989959716797" x="0px" y="0px">
        <defs></defs>
        <title>Lambda-Oxygen-1</title>
        <path
            d="M41.34,41.17a2.5,2.5,0,0,0,0,5c3.8,0,5.21,2.42,6.66,5.59l.24.51c.2.43.63,1.39,1.21,2.67L35.8,79.1a2.5,2.5,0,0,0,4.35,2.46L52,60.63c3.17,7.16,7.16,16.19,7.23,16.34a9.47,9.47,0,0,0,11.56,5.43,2.5,2.5,0,0,0-1.48-4.78,4.48,4.48,0,0,1-5.51-2.7c-.4-.9-9.74-22.09-11-24.78l-.22-.48C51.29,46.92,48.66,41.17,41.34,41.17Z"
            ></path>
        <path d="M99.67,89.89,52.17,7.61a2.5,2.5,0,0,0-4.33,0L.33,89.89A2.5,2.5,0,0,0,2.5,93.64h95a2.5,2.5,0,0,0,2.17-3.75ZM6.83,88.64,50,13.86,93.17,88.64Z"></path>
      </svg>
    </svg>
    <defs>
    <filter id="colors-1"><feColorMatrix type="matrix" values="0 0 0 0 0.87890625  0 0 0 0 0.42578125  0 0 0 0 0.95703125  0 0 0 1 0" class="icon-fecolormatrix"></feColorMatrix></filter>
    <filter id="colors-2"><feColorMatrix type="matrix" values="0 0 0 0 0.99609375  0 0 0 0 0.99609375  0 0 0 0 0.99609375  0 0 0 1 0" class="icon-fecolormatrix"></feColorMatrix></filter>
    <filter id="colors-3"><feColorMatrix type="matrix" values="0 0 0 0 0  0 0 0 0 0  0 0 0 0 0  0 0 0 1 0" class="icon-fecolormatrix"></feColorMatrix></filter>
    </defs>
    </g>
    </g>
    </mask>
</svg>
