<svg viewBox="-0.004939851351082325 6.360109329223633 100.0098648071289 87.27989959716797" x="0px" y="0px">
  <defs></defs>
  <title>Lambda-Oxygen-1</title>
  <path
      d="M41.34,41.17a2.5,2.5,0,0,0,0,5c3.8,0,5.21,2.42,6.66,5.59l.24.51c.2.43.63,1.39,1.21,2.67L35.8,79.1a2.5,2.5,0,0,0,4.35,2.46L52,60.63c3.17,7.16,7.16,16.19,7.23,16.34a9.47,9.47,0,0,0,11.56,5.43,2.5,2.5,0,0,0-1.48-4.78,4.48,4.48,0,0,1-5.51-2.7c-.4-.9-9.74-22.09-11-24.78l-.22-.48C51.29,46.92,48.66,41.17,41.34,41.17Z"
      ></path>
  <path d="M99.67,89.89,52.17,7.61a2.5,2.5,0,0,0-4.33,0L.33,89.89A2.5,2.5,0,0,0,2.5,93.64h95a2.5,2.5,0,0,0,2.17-3.75ZM6.83,88.64,50,13.86,93.17,88.64Z"></path>
</svg>
