<svg
    width="100%"
    viewBox="0 0 340.000000 250.000000"
    >
    <g fill="#e16df5" class="icon-text-wrapper icon-svg-group iconsvg" transform="translate(10,10)">
    <g class="iconsvg-imagesvg" transform="translate(0,0)" mask="url(#mask-1)">
    <g>
  <svg filter="url(#colors-1)" x="0" y="0" width="60" height="52.36287472182222" filtersec="colors-2" class="image-svg-svg primary" style="overflow: visible;">
    <svg viewBox="-0.004939851351082325 6.360109329223633 100.0098648071289 87.27989959716797" x="0px" y="0px">
      <defs></defs>
      <title>Lambda-Oxygen-1</title>
      <path
          d="M41.34,41.17a2.5,2.5,0,0,0,0,5c3.8,0,5.21,2.42,6.66,5.59l.24.51c.2.43.63,1.39,1.21,2.67L35.8,79.1a2.5,2.5,0,0,0,4.35,2.46L52,60.63c3.17,7.16,7.16,16.19,7.23,16.34a9.47,9.47,0,0,0,11.56,5.43,2.5,2.5,0,0,0-1.48-4.78,4.48,4.48,0,0,1-5.51-2.7c-.4-.9-9.74-22.09-11-24.78l-.22-.48C51.29,46.92,48.66,41.17,41.34,41.17Z"
          ></path>
      <path d="M99.67,89.89,52.17,7.61a2.5,2.5,0,0,0-4.33,0L.33,89.89A2.5,2.5,0,0,0,2.5,93.64h95a2.5,2.5,0,0,0,2.17-3.75ZM6.83,88.64,50,13.86,93.17,88.64Z"></path>
    </svg>
  </svg>
  <defs>
  <filter id="colors-1"><feColorMatrix type="matrix" values="0 0 0 0 0.87890625  0 0 0 0 0.42578125  0 0 0 0 0.95703125  0 0 0 1 0" class="icon-fecolormatrix"></feColorMatrix></filter>
  <filter id="colors-2"><feColorMatrix type="matrix" values="0 0 0 0 0.99609375  0 0 0 0 0.99609375  0 0 0 0 0.99609375  0 0 0 1 0" class="icon-fecolormatrix"></feColorMatrix></filter>
  <filter id="colors-3"><feColorMatrix type="matrix" values="0 0 0 0 0  0 0 0 0 0  0 0 0 0 0  0 0 0 1 0" class="icon-fecolormatrix"></feColorMatrix></filter>
  </defs>
    </g>
    <rect v-gra="id" width="72.00000381469727" height="64.36287307739258" transform="translate(-6, -6)" style="pointer-events: none;" fill="url(#gradient-1)"></rect>
    </g>
    </g>
    <defs v-gra="od">
    <linearGradient x1="0" y1="1" x2="0" y2="0" id="color-4">
    <stop offset="0%" stop-color="#e16df5"></stop>
    <stop offset="100%" stop-color="#4ef8e7"></stop>
    </linearGradient>
    <filter id="filter-1" filterUnits="userSpaceOnUse"><feColorMatrix type="matrix" values="0 0 0 0 0.99609375  0 0 0 0 0.99609375  0 0 0 0 0.99609375  0 0 0 1 0"></feColorMatrix></filter>
    <linearGradient x1="0" y1="1" x2="0" y2="0" id="fill-1">
    <stop offset="0%" stop-color="#e16df5"></stop>
    <stop offset="100%" stop-color="#4ef8e7"></stop>
    </linearGradient>
    <filter id="filter-1" filterUnits="userSpaceOnUse"><feColorMatrix type="matrix" values="0 0 0 0 0.99609375  0 0 0 0 0.99609375  0 0 0 0 0.99609375  0 0 0 1 0"></feColorMatrix></filter>
    </defs>
    <defs v-gra="id">
    <filter id="color-5" filterUnits="userSpaceOnUse"><feColorMatrix type="matrix" values="0 0 0 0 0.99609375  0 0 0 0 0.99609375  0 0 0 0 0.99609375  0 0 0 1 0"></feColorMatrix></filter>
    <linearGradient x1="0" y1="1" x2="0" y2="0" id="gradient-1">
    <stop offset="0%" stop-color="#e16df5"></stop>
    <stop offset="100%" stop-color="#4ef8e7"></stop>
    </linearGradient>
    <filter id="filter-1" filterUnits="userSpaceOnUse"><feColorMatrix type="matrix" values="0 0 0 0 0.99609375  0 0 0 0 0.99609375  0 0 0 0 0.99609375  0 0 0 1 0"></feColorMatrix></filter>
    </defs>
    <mask v-gra="im" id="mask-1">
    <g class="iconsvg-imagesvg" filter="url(#color-5)">
    <g>
    <rect fill="#e16df5" fill-opacity="0" stroke-width="2" x="0" y="0" width="60" height="52.36287472182222" class="image-rect"></rect>
    <svg x="0" y="0" width="60" height="52.36287472182222" filtersec="colors-2" class="image-svg-svg primary" style="overflow: visible;">
      <svg viewBox="-0.004939851351082325 6.360109329223633 100.0098648071289 87.27989959716797" x="0px" y="0px">
        <defs></defs>
        <title>Lambda-Oxygen-1</title>
        <path
            d="M41.34,41.17a2.5,2.5,0,0,0,0,5c3.8,0,5.21,2.42,6.66,5.59l.24.51c.2.43.63,1.39,1.21,2.67L35.8,79.1a2.5,2.5,0,0,0,4.35,2.46L52,60.63c3.17,7.16,7.16,16.19,7.23,16.34a9.47,9.47,0,0,0,11.56,5.43,2.5,2.5,0,0,0-1.48-4.78,4.48,4.48,0,0,1-5.51-2.7c-.4-.9-9.74-22.09-11-24.78l-.22-.48C51.29,46.92,48.66,41.17,41.34,41.17Z"
            ></path>
        <path d="M99.67,89.89,52.17,7.61a2.5,2.5,0,0,0-4.33,0L.33,89.89A2.5,2.5,0,0,0,2.5,93.64h95a2.5,2.5,0,0,0,2.17-3.75ZM6.83,88.64,50,13.86,93.17,88.64Z"></path>
      </svg>
    </svg>
    <defs>
    <filter id="colors-1"><feColorMatrix type="matrix" values="0 0 0 0 0.87890625  0 0 0 0 0.42578125  0 0 0 0 0.95703125  0 0 0 1 0" class="icon-fecolormatrix"></feColorMatrix></filter>
    <filter id="colors-2"><feColorMatrix type="matrix" values="0 0 0 0 0.99609375  0 0 0 0 0.99609375  0 0 0 0 0.99609375  0 0 0 1 0" class="icon-fecolormatrix"></feColorMatrix></filter>
    <filter id="colors-3"><feColorMatrix type="matrix" values="0 0 0 0 0  0 0 0 0 0  0 0 0 0 0  0 0 0 1 0" class="icon-fecolormatrix"></feColorMatrix></filter>
    </defs>
    </g>
    </g>
    </mask>
</svg>
