<?xml version="1.0" encoding="UTF-8" standalone="no"?>
<svg
   width="2.7423387in"
   height="2.3938935in"
   viewBox="0 0 181.43113 215.44999"
   version="1.1"
   id="svg3"
   sodipodi:docname="icon.svg"
   inkscape:version="1.1.2 (0a00cf5339, 2022-02-04, custom)"
   xmlns:inkscape="http://www.inkscape.org/namespaces/inkscape"
   xmlns:sodipodi="http://sodipodi.sourceforge.net/DTD/sodipodi-0.dtd"
   xmlns:xlink="http://www.w3.org/1999/xlink"
   xmlns="http://www.w3.org/2000/svg"
   xmlns:svg="http://www.w3.org/2000/svg">
  <defs
     id="defs7">
    <linearGradient
       inkscape:collect="always"
       id="linearGradient4073">
      <stop
         style="stop-color:#f60080;stop-opacity:1"
         offset="0"
         id="stop4069" />
      <stop
         style="stop-color:#00ffff;stop-opacity:1"
         offset="1"
         id="stop4071" />
    </linearGradient>
    <linearGradient
       inkscape:collect="always"
       xlink:href="#linearGradient4073"
       id="linearGradient4075"
       x1="317.81873"
       y1="618.13013"
       x2="316.84256"
       y2="404.97577"
       gradientUnits="userSpaceOnUse"
       gradientTransform="matrix(0.86831028,0,0,0.86831028,-184.40512,-337.47476)" />
  </defs>
  <sodipodi:namedview
     id="namedview5"
     pagecolor="#ffffff"
     bordercolor="#666666"
     borderopacity="1.0"
     inkscape:pageshadow="2"
     inkscape:pageopacity="0.0"
     inkscape:pagecheckerboard="0"
     inkscape:document-units="in"
     showgrid="false"
     inkscape:zoom="4.0399873"
     inkscape:cx="95.049804"
     inkscape:cy="130.81724"
     inkscape:window-width="3456"
     inkscape:window-height="2160"
     inkscape:window-x="0"
     inkscape:window-y="0"
     inkscape:window-maximized="1"
     inkscape:current-layer="svg3" />
  <path
     id="icon"
     fill="none"
     stroke="#000000"
     stroke-width="1"
     d="m 196.53129,192.21187 c 0,0 -101.349156,-175.554977 -101.349156,-175.554977 -0.929097,-1.597691 -2.665714,-2.665713 -4.628097,-2.665713 -1.988431,0 -3.699004,1.068022 -4.619413,2.665713 0,0 -101.392595,175.554977 -101.392595,175.554977 -0.460204,0.78149 -0.712014,1.7019 -0.712014,2.66572 0,2.95225 2.379171,5.33142 5.296693,5.33142 0.04341,0 0.04341,0 0.04341,0 0,0 202.741757,0 202.741757,0 0,0 0,0 0.0347,0 2.91752,0 5.33142,-2.37917 5.33142,-5.33142 0,-0.96382 -0.27785,-1.88423 -0.74674,-2.66572 0,0 0,0 0,0 z M -1.582372,189.54616 c 0,0 92.136409,-159.552021 92.136409,-159.552021 0,0 92.101653,159.552021 92.101653,159.552021 0,0 -184.238062,0 -184.238062,0 z M 72.059025,88.249075 c -2.952254,0 -5.340108,2.387857 -5.340108,5.340105 0,2.943575 2.387854,5.331425 5.340108,5.331425 8.110018,0 11.131738,5.157775 14.231606,11.947965 0,0 1.59769,0 1.59769,0 2.665716,2.95225 2.561512,5.69612 2.561512,5.69612 0,0 -30.208511,52.63696 -30.208511,52.63696 -0.390739,0.74676 -0.633866,1.56296 -0.633866,2.44864 0,2.95226 2.413902,5.3401 5.331425,5.3401 1.962381,0 3.629537,-0.99855 4.593361,-2.56151 0,0 25.259146,-44.63982 25.259146,-44.63982 6.790172,15.25621 15.290932,34.5327 15.438542,34.85397 3.02172,7.32854 10.24606,12.4863 18.67736,12.4863 2.10131,0 4.12447,-0.32128 6.0087,-0.88568 2.17078,-0.67728 3.76847,-2.70912 3.76847,-5.0883 0,-2.95225 -2.41391,-5.37484 -5.36616,-5.37484 -0.53835,0 -1.06802,0.11289 -1.56296,0.25181 -0.89436,0.28654 -1.8495,0.42548 -2.81332,0.42548 -4.08974,0 -7.58035,-2.56152 -8.96965,-6.18237 -0.85095,-1.92765 -20.769976,-47.13188 -23.479096,-52.88879 0,0 -0.46021,-0.99855 -0.46021,-0.99855 -2.73517,-5.86979 -8.36182,-18.139015 -23.974039,-18.139015 z"
     style="mix-blend-mode:color;fill:url(#linearGradient4075);fill-opacity:1;stroke-width:0.859625;stroke-miterlimit:4;stroke-dasharray:none" />
</svg>
