<?xml version="1.0" encoding="UTF-8" standalone="no"?>
<!DOCTYPE svg PUBLIC "-//W3C//DTD SVG 20010904//EN"
              "http://www.w3.org/TR/2001/REC-SVG-20010904/DTD/svg10.dtd">

<svg xmlns="http://www.w3.org/2000/svg"
     width="3.77778in" height="2.77778in"
     viewBox="0 0 340 250">
  <path id="delta"
        fill="none" stroke="black" stroke-width="1"
        d="M 72.09,119.70
           C 71.26,119.70 70.59,120.37 70.59,121.20
             70.59,122.03 71.26,122.70 72.09,122.70
             74.37,122.70 75.22,124.15 76.09,126.06
             76.09,126.06 76.54,126.06 76.54,126.06
             77.29,126.89 77.26,127.66 77.26,127.66
             77.26,127.66 68.77,142.46 68.77,142.46
             68.66,142.67 68.59,142.90 68.59,143.15
             68.59,143.98 69.27,144.65 70.09,144.65
             70.64,144.65 71.11,144.37 71.38,143.93
             71.38,143.93 78.48,131.38 78.48,131.38
             80.39,135.67 82.78,141.09 82.82,141.18
             83.67,143.24 85.70,144.69 88.07,144.69
             88.66,144.69 89.23,144.60 89.76,144.44
             90.37,144.25 90.82,143.68 90.82,143.01
             90.82,142.18 90.14,141.50 89.31,141.50
             89.16,141.50 89.01,141.53 88.87,141.57
             88.62,141.65 88.35,141.69 88.08,141.69
             86.93,141.69 85.95,140.97 85.56,139.95
             85.32,139.41 79.72,126.70 78.96,125.08
             78.96,125.08 78.83,124.80 78.83,124.80
             78.06,123.15 76.48,119.70 72.09,119.70 Z" />
</svg>
