<?xml version="1.0" encoding="UTF-8" standalone="no"?>
<!DOCTYPE svg PUBLIC "-//W3C//DTD SVG 20010904//EN"
              "http://www.w3.org/TR/2001/REC-SVG-20010904/DTD/svg10.dtd">

<svg xmlns="http://www.w3.org/2000/svg"
     width="3.77778in" height="2.77778in"
     viewBox="0 0 340 250">
  <path id="lumium"
        fill="none" stroke="black" stroke-width="1"
        d="M 128.06,135.65
           C 128.06,135.65 114.64,135.65 114.64,135.65
             114.64,135.65 114.64,131.56 114.64,131.56
             114.64,131.56 117.94,130.86 117.94,130.86
             117.94,130.86 117.94,103.99 117.94,103.99
             117.94,103.99 114.29,103.29 114.29,103.29
             114.29,103.29 114.29,99.17 114.29,99.17
             114.29,99.17 124.76,99.17 124.76,99.17
             124.76,99.17 124.76,130.86 124.76,130.86
             124.76,130.86 128.06,131.56 128.06,131.56
             128.06,131.56 128.06,135.65 128.06,135.65 Z
           M 141.01,136.14
           C 141.01,136.14 141.01,136.14 141.01,136.14
             138.35,136.14 136.26,135.30 134.74,133.60
             133.22,131.92 132.46,129.29 132.46,125.71
             132.46,125.71 132.46,125.71 132.46,125.71
             132.46,125.71 132.46,115.17 132.46,115.17
             132.46,115.17 129.67,114.47 129.67,114.47
             129.67,114.47 129.67,110.35 129.67,110.35
             129.67,110.35 132.46,110.35 132.46,110.35
             132.46,110.35 139.28,110.35 139.28,110.35
             139.28,110.35 139.28,125.76 139.28,125.76
             139.28,127.57 139.59,128.87 140.23,129.65
             140.86,130.44 141.82,130.83 143.10,130.83
             143.10,130.83 143.10,130.83 143.10,130.83
             144.11,130.83 145.00,130.64 145.78,130.24
             146.56,129.84 147.20,129.28 147.70,128.54
             147.70,128.54 147.70,128.54 147.70,128.54
             147.70,128.54 147.70,115.17 147.70,115.17
             147.70,115.17 144.69,114.47 144.69,114.47
             144.69,114.47 144.69,110.35 144.69,110.35
             144.69,110.35 147.70,110.35 147.70,110.35
             147.70,110.35 154.53,110.35 154.53,110.35
             154.53,110.35 154.53,130.86 154.53,130.86
             154.53,130.86 157.57,131.56 157.57,131.56
             157.57,131.56 157.57,135.65 157.57,135.65
             157.57,135.65 148.54,135.65 148.54,135.65
             148.54,135.65 148.08,132.45 148.08,132.45
             147.28,133.63 146.28,134.54 145.08,135.18
             143.88,135.82 142.52,136.14 141.01,136.14 Z
           M 172.89,135.65
           C 172.89,135.65 159.84,135.65 159.84,135.65
             159.84,135.65 159.84,131.56 159.84,131.56
             159.84,131.56 163.13,130.86 163.13,130.86
             163.13,130.86 163.13,115.17 163.13,115.17
             163.13,115.17 159.49,114.47 159.49,114.47
             159.49,114.47 159.49,110.35 159.49,110.35
             159.49,110.35 169.47,110.35 169.47,110.35
             169.47,110.35 169.75,113.69 169.75,113.69
             170.56,112.48 171.58,111.54 172.80,110.88
             174.02,110.22 175.44,109.88 177.05,109.88
             177.05,109.88 177.05,109.88 177.05,109.88
             178.67,109.88 180.06,110.24 181.22,110.96
             182.38,111.68 183.25,112.76 183.83,114.21
             183.83,114.21 183.83,114.21 183.83,114.21
             184.61,112.85 185.62,111.79 186.87,111.03
             188.11,110.27 189.58,109.88 191.26,109.88
             191.26,109.88 191.26,109.88 191.26,109.88
             193.76,109.88 195.73,110.73 197.17,112.43
             198.61,114.13 199.33,116.72 199.33,120.19
             199.33,120.19 199.33,120.19 199.33,120.19
             199.33,120.19 199.33,130.86 199.33,130.86
             199.33,130.86 202.63,131.56 202.63,131.56
             202.63,131.56 202.63,135.65 202.63,135.65
             202.63,135.65 189.56,135.65 189.56,135.65
             189.56,135.65 189.56,131.56 189.56,131.56
             189.56,131.56 192.50,130.86 192.50,130.86
             192.50,130.86 192.50,120.17 192.50,120.17
             192.50,118.30 192.19,117.00 191.58,116.28
             190.96,115.56 190.07,115.19 188.90,115.19
             188.90,115.19 188.90,115.19 188.90,115.19
             187.84,115.19 186.94,115.49 186.21,116.09
             185.47,116.69 184.94,117.48 184.62,118.46
             184.62,118.46 184.62,118.46 184.62,118.46
             184.62,118.46 184.62,130.86 184.62,130.86
             184.62,130.86 187.38,131.56 187.38,131.56
             187.38,131.56 187.38,135.65 187.38,135.65
             187.38,135.65 175.06,135.65 175.06,135.65
             175.06,135.65 175.06,131.56 175.06,131.56
             175.06,131.56 177.82,130.86 177.82,130.86
             177.82,130.86 177.82,120.17 177.82,120.17
             177.82,118.35 177.51,117.06 176.90,116.31
             176.28,115.57 175.37,115.19 174.17,115.19
             174.17,115.19 174.17,115.19 174.17,115.19
             173.20,115.19 172.37,115.39 171.67,115.77
             170.97,116.17 170.39,116.73 169.94,117.46
             169.94,117.46 169.94,117.46 169.94,117.46
             169.94,117.46 169.94,130.86 169.94,130.86
             169.94,130.86 172.89,131.56 172.89,131.56
             172.89,131.56 172.89,135.65 172.89,135.65 Z
           M 218.11,135.65
           C 218.11,135.65 204.71,135.65 204.71,135.65
             204.71,135.65 204.71,131.56 204.71,131.56
             204.71,131.56 208.01,130.86 208.01,130.86
             208.01,130.86 208.01,115.17 208.01,115.17
             208.01,115.17 204.36,114.47 204.36,114.47
             204.36,114.47 204.36,110.35 204.36,110.35
             204.36,110.35 214.83,110.35 214.83,110.35
             214.83,110.35 214.83,130.86 214.83,130.86
             214.83,130.86 218.11,131.56 218.11,131.56
             218.11,131.56 218.11,135.65 218.11,135.65 Z
           M 214.83,105.00
           C 214.83,105.00 207.77,105.00 207.77,105.00
             207.77,105.00 207.77,99.17 207.77,99.17
             207.77,99.17 214.83,99.17 214.83,99.17
             214.83,99.17 214.83,105.00 214.83,105.00 Z
           M 231.11,136.14
           C 231.11,136.14 231.11,136.14 231.11,136.14
             228.44,136.14 226.35,135.30 224.83,133.60
             223.31,131.92 222.55,129.29 222.55,125.71
             222.55,125.71 222.55,125.71 222.55,125.71
             222.55,125.71 222.55,115.17 222.55,115.17
             222.55,115.17 219.77,114.47 219.77,114.47
             219.77,114.47 219.77,110.35 219.77,110.35
             219.77,110.35 222.55,110.35 222.55,110.35
             222.55,110.35 229.38,110.35 229.38,110.35
             229.38,110.35 229.38,125.76 229.38,125.76
             229.38,127.57 229.69,128.87 230.32,129.65
             230.95,130.44 231.91,130.83 233.19,130.83
             233.19,130.83 233.19,130.83 233.19,130.83
             234.20,130.83 235.10,130.64 235.88,130.24
             236.66,129.84 237.30,129.28 237.80,128.54
             237.80,128.54 237.80,128.54 237.80,128.54
             237.80,128.54 237.80,115.17 237.80,115.17
             237.80,115.17 234.78,114.47 234.78,114.47
             234.78,114.47 234.78,110.35 234.78,110.35
             234.78,110.35 237.80,110.35 237.80,110.35
             237.80,110.35 244.62,110.35 244.62,110.35
             244.62,110.35 244.62,130.86 244.62,130.86
             244.62,130.86 247.66,131.56 247.66,131.56
             247.66,131.56 247.66,135.65 247.66,135.65
             247.66,135.65 238.64,135.65 238.64,135.65
             238.64,135.65 238.17,132.45 238.17,132.45
             237.37,133.63 236.38,134.54 235.18,135.18
             233.98,135.82 232.62,136.14 231.11,136.14 Z
           M 262.98,135.65
           C 262.98,135.65 249.93,135.65 249.93,135.65
             249.93,135.65 249.93,131.56 249.93,131.56
             249.93,131.56 253.23,130.86 253.23,130.86
             253.23,130.86 253.23,115.17 253.23,115.17
             253.23,115.17 249.58,114.47 249.58,114.47
             249.58,114.47 249.58,110.35 249.58,110.35
             249.58,110.35 259.56,110.35 259.56,110.35
             259.56,110.35 259.85,113.69 259.85,113.69
             260.65,112.48 261.67,111.54 262.90,110.88
             264.12,110.22 265.53,109.88 267.14,109.88
             267.14,109.88 267.14,109.88 267.14,109.88
             268.76,109.88 270.15,110.24 271.31,110.96
             272.47,111.68 273.34,112.76 273.92,114.21
             273.92,114.21 273.92,114.21 273.92,114.21
             274.70,112.85 275.71,111.79 276.96,111.03
             278.20,110.27 279.67,109.88 281.36,109.88
             281.36,109.88 281.36,109.88 281.36,109.88
             283.85,109.88 285.82,110.73 287.26,112.43
             288.70,114.13 289.42,116.72 289.42,120.19
             289.42,120.19 289.42,120.19 289.42,120.19
             289.42,120.19 289.42,130.86 289.42,130.86
             289.42,130.86 292.72,131.56 292.72,131.56
             292.72,131.56 292.72,135.65 292.72,135.65
             292.72,135.65 279.65,135.65 279.65,135.65
             279.65,135.65 279.65,131.56 279.65,131.56
             279.65,131.56 282.60,130.86 282.60,130.86
             282.60,130.86 282.60,120.17 282.60,120.17
             282.60,118.30 282.29,117.00 281.67,116.28
             281.05,115.56 280.16,115.19 279.00,115.19
             279.00,115.19 279.00,115.19 279.00,115.19
             277.94,115.19 277.04,115.49 276.31,116.09
             275.57,116.69 275.04,117.48 274.72,118.46
             274.72,118.46 274.72,118.46 274.72,118.46
             274.72,118.46 274.72,130.86 274.72,130.86
             274.72,130.86 277.48,131.56 277.48,131.56
             277.48,131.56 277.48,135.65 277.48,135.65
             277.48,135.65 265.15,135.65 265.15,135.65
             265.15,135.65 265.15,131.56 265.15,131.56
             265.15,131.56 267.91,130.86 267.91,130.86
             267.91,130.86 267.91,120.17 267.91,120.17
             267.91,118.35 267.60,117.06 266.99,116.31
             266.37,115.57 265.46,115.19 264.26,115.19
             264.26,115.19 264.26,115.19 264.26,115.19
             263.30,115.19 262.46,115.39 261.76,115.77
             261.06,116.17 260.48,116.73 260.03,117.46
             260.03,117.46 260.03,117.46 260.03,117.46
             260.03,117.46 260.03,130.86 260.03,130.86
             260.03,130.86 262.98,131.56 262.98,131.56
             262.98,131.56 262.98,135.65 262.98,135.65 Z" />
</svg>
