<?xml version="1.0" encoding="UTF-8" standalone="no"?>
<!DOCTYPE svg PUBLIC "-//W3C//DTD SVG 20010904//EN"
              "http://www.w3.org/TR/2001/REC-SVG-20010904/DTD/svg10.dtd">

<svg xmlns="http://www.w3.org/2000/svg"
     width="3.77778in" height="2.77778in"
     viewBox="0 0 340 250">
  <path id="next level docs"
        fill="none" stroke="black" stroke-width="1"
        d="M 167.18,150.69
           C 167.18,150.69 167.18,144.86 167.18,144.86
             167.18,144.86 168.00,144.86 168.00,144.86
             168.00,144.86 168.08,145.70 168.08,145.70
             168.08,145.70 168.12,145.70 168.12,145.70
             168.40,145.42 168.69,145.18 169.00,145.00
             169.31,144.80 169.67,144.71 170.08,144.71
             170.08,144.71 170.08,144.71 170.08,144.71
             170.69,144.71 171.14,144.90 171.43,145.29
             171.71,145.67 171.85,146.24 171.85,146.99
             171.85,146.99 171.85,146.99 171.85,146.99
             171.85,146.99 171.85,150.69 171.85,150.69
             171.85,150.69 170.87,150.69 170.87,150.69
             170.87,150.69 170.87,147.13 170.87,147.13
             170.87,146.57 170.78,146.17 170.60,145.93
             170.43,145.69 170.15,145.57 169.76,145.57
             169.76,145.57 169.76,145.57 169.76,145.57
             169.46,145.57 169.19,145.64 168.96,145.79
             168.73,145.94 168.46,146.17 168.17,146.47
             168.17,146.47 168.17,146.47 168.17,146.47
             168.17,146.47 168.17,150.69 168.17,150.69
             168.17,150.69 167.18,150.69 167.18,150.69 Z
           M 173.32,147.79
           C 173.32,147.79 173.32,147.79 173.32,147.79
             173.32,147.31 173.39,146.88 173.54,146.50
             173.69,146.12 173.88,145.79 174.13,145.53
             174.37,145.26 174.65,145.06 174.96,144.92
             175.27,144.78 175.60,144.71 175.93,144.71
             175.93,144.71 175.93,144.71 175.93,144.71
             176.30,144.71 176.63,144.77 176.92,144.91
             177.21,145.03 177.46,145.22 177.65,145.46
             177.85,145.70 178.00,145.98 178.10,146.32
             178.21,146.66 178.26,147.03 178.26,147.45
             178.26,147.45 178.26,147.45 178.26,147.45
             178.26,147.66 178.25,147.84 178.22,147.99
             178.22,147.99 178.22,147.99 178.22,147.99
             178.22,147.99 174.29,147.99 174.29,147.99
             174.33,148.62 174.52,149.12 174.87,149.49
             175.22,149.85 175.67,150.04 176.23,150.04
             176.23,150.04 176.23,150.04 176.23,150.04
             176.51,150.04 176.77,150.00 177.01,149.92
             177.24,149.83 177.47,149.72 177.68,149.59
             177.68,149.59 177.68,149.59 177.68,149.59
             177.68,149.59 178.03,150.23 178.03,150.23
             177.78,150.39 177.49,150.53 177.18,150.65
             176.87,150.77 176.51,150.83 176.11,150.83
             176.11,150.83 176.11,150.83 176.11,150.83
             175.72,150.83 175.35,150.76 175.01,150.62
             174.67,150.48 174.38,150.28 174.13,150.02
             173.88,149.76 173.68,149.44 173.53,149.07
             173.39,148.69 173.32,148.27 173.32,147.79 Z
           M 174.28,147.34
           C 174.28,147.34 177.40,147.34 177.40,147.34
             177.40,146.74 177.27,146.28 177.02,145.97
             176.77,145.65 176.41,145.49 175.96,145.49
             175.96,145.49 175.96,145.49 175.96,145.49
             175.75,145.49 175.55,145.53 175.36,145.62
             175.17,145.70 175.00,145.82 174.85,145.98
             174.70,146.13 174.57,146.32 174.47,146.56
             174.37,146.78 174.31,147.04 174.28,147.34
             174.28,147.34 174.28,147.34 174.28,147.34 Z
           M 178.80,150.69
           C 178.80,150.69 180.71,147.64 180.71,147.64
             180.71,147.64 178.94,144.86 178.94,144.86
             178.94,144.86 180.01,144.86 180.01,144.86
             180.01,144.86 180.79,146.14 180.79,146.14
             180.88,146.30 180.97,146.46 181.07,146.63
             181.16,146.79 181.26,146.95 181.37,147.11
             181.37,147.11 181.37,147.11 181.37,147.11
             181.37,147.11 181.42,147.11 181.42,147.11
             181.51,146.95 181.59,146.79 181.68,146.63
             181.77,146.46 181.85,146.30 181.94,146.14
             181.94,146.14 181.94,146.14 181.94,146.14
             181.94,146.14 182.65,144.86 182.65,144.86
             182.65,144.86 183.68,144.86 183.68,144.86
             183.68,144.86 181.92,147.75 181.92,147.75
             181.92,147.75 183.82,150.69 183.82,150.69
             183.82,150.69 182.75,150.69 182.75,150.69
             182.75,150.69 181.90,149.33 181.90,149.33
             181.79,149.15 181.69,148.98 181.58,148.81
             181.48,148.63 181.37,148.45 181.26,148.29
             181.26,148.29 181.26,148.29 181.26,148.29
             181.26,148.29 181.21,148.29 181.21,148.29
             181.11,148.45 181.01,148.62 180.91,148.80
             180.82,148.97 180.72,149.15 180.62,149.33
             180.62,149.33 180.62,149.33 180.62,149.33
             180.62,149.33 179.83,150.69 179.83,150.69
             179.83,150.69 178.80,150.69 178.80,150.69 Z
           M 185.14,148.89
           C 185.14,148.89 185.14,145.66 185.14,145.66
             185.14,145.66 184.27,145.66 184.27,145.66
             184.27,145.66 184.27,144.92 184.27,144.92
             184.27,144.92 185.18,144.86 185.18,144.86
             185.18,144.86 185.30,143.23 185.30,143.23
             185.30,143.23 186.13,143.23 186.13,143.23
             186.13,143.23 186.13,144.86 186.13,144.86
             186.13,144.86 187.70,144.86 187.70,144.86
             187.70,144.86 187.70,145.66 187.70,145.66
             187.70,145.66 186.13,145.66 186.13,145.66
             186.13,145.66 186.13,148.90 186.13,148.90
             186.13,149.26 186.20,149.54 186.33,149.74
             186.46,149.93 186.70,150.03 187.03,150.03
             187.03,150.03 187.03,150.03 187.03,150.03
             187.14,150.03 187.25,150.01 187.37,149.98
             187.49,149.94 187.60,149.91 187.69,149.87
             187.69,149.87 187.69,149.87 187.69,149.87
             187.69,149.87 187.88,150.62 187.88,150.62
             187.72,150.67 187.55,150.72 187.36,150.77
             187.17,150.81 186.99,150.83 186.80,150.83
             186.80,150.83 186.80,150.83 186.80,150.83
             186.49,150.83 186.23,150.78 186.02,150.69
             185.81,150.59 185.63,150.46 185.50,150.29
             185.37,150.12 185.27,149.92 185.22,149.68
             185.17,149.44 185.14,149.17 185.14,148.89
             185.14,148.89 185.14,148.89 185.14,148.89 Z
           M 191.45,149.51
           C 191.45,149.51 191.45,142.15 191.45,142.15
             191.45,142.15 192.43,142.15 192.43,142.15
             192.43,142.15 192.43,149.59 192.43,149.59
             192.43,149.75 192.46,149.86 192.52,149.92
             192.57,149.98 192.64,150.02 192.71,150.02
             192.71,150.02 192.71,150.02 192.71,150.02
             192.74,150.02 192.77,150.02 192.80,150.02
             192.83,150.02 192.87,150.01 192.92,149.99
             192.92,149.99 192.92,149.99 192.92,149.99
             192.92,149.99 193.06,150.74 193.06,150.74
             192.99,150.77 192.92,150.79 192.83,150.81
             192.74,150.82 192.63,150.83 192.49,150.83
             192.49,150.83 192.49,150.83 192.49,150.83
             192.12,150.83 191.85,150.72 191.69,150.50
             191.53,150.27 191.45,149.94 191.45,149.51
             191.45,149.51 191.45,149.51 191.45,149.51 Z
           M 194.08,147.79
           C 194.08,147.79 194.08,147.79 194.08,147.79
             194.08,147.31 194.15,146.88 194.30,146.50
             194.45,146.12 194.64,145.79 194.89,145.53
             195.13,145.26 195.41,145.06 195.72,144.92
             196.03,144.78 196.36,144.71 196.69,144.71
             196.69,144.71 196.69,144.71 196.69,144.71
             197.06,144.71 197.39,144.77 197.68,144.91
             197.97,145.03 198.22,145.22 198.41,145.46
             198.61,145.70 198.76,145.98 198.86,146.32
             198.97,146.66 199.02,147.03 199.02,147.45
             199.02,147.45 199.02,147.45 199.02,147.45
             199.02,147.66 199.01,147.84 198.98,147.99
             198.98,147.99 198.98,147.99 198.98,147.99
             198.98,147.99 195.05,147.99 195.05,147.99
             195.09,148.62 195.28,149.12 195.63,149.49
             195.98,149.85 196.43,150.04 196.99,150.04
             196.99,150.04 196.99,150.04 196.99,150.04
             197.27,150.04 197.53,150.00 197.77,149.92
             198.00,149.83 198.23,149.72 198.44,149.59
             198.44,149.59 198.44,149.59 198.44,149.59
             198.44,149.59 198.79,150.23 198.79,150.23
             198.54,150.39 198.25,150.53 197.94,150.65
             197.63,150.77 197.27,150.83 196.87,150.83
             196.87,150.83 196.87,150.83 196.87,150.83
             196.48,150.83 196.11,150.76 195.77,150.62
             195.43,150.48 195.14,150.28 194.89,150.02
             194.64,149.76 194.44,149.44 194.29,149.07
             194.15,148.69 194.08,148.27 194.08,147.79 Z
           M 195.04,147.34
           C 195.04,147.34 198.16,147.34 198.16,147.34
             198.16,146.74 198.03,146.28 197.78,145.97
             197.53,145.65 197.17,145.49 196.72,145.49
             196.72,145.49 196.72,145.49 196.72,145.49
             196.51,145.49 196.31,145.53 196.12,145.62
             195.93,145.70 195.76,145.82 195.61,145.98
             195.46,146.13 195.33,146.32 195.23,146.56
             195.13,146.78 195.07,147.04 195.04,147.34
             195.04,147.34 195.04,147.34 195.04,147.34 Z
           M 201.78,150.69
           C 201.78,150.69 199.68,144.86 199.68,144.86
             199.68,144.86 200.70,144.86 200.70,144.86
             200.70,144.86 201.80,148.17 201.80,148.17
             201.89,148.45 201.98,148.74 202.07,149.03
             202.16,149.32 202.25,149.61 202.34,149.89
             202.34,149.89 202.34,149.89 202.34,149.89
             202.34,149.89 202.39,149.89 202.39,149.89
             202.48,149.61 202.57,149.32 202.66,149.03
             202.75,148.74 202.83,148.45 202.92,148.17
             202.92,148.17 202.92,148.17 202.92,148.17
             202.92,148.17 204.02,144.86 204.02,144.86
             204.02,144.86 205.00,144.86 205.00,144.86
             205.00,144.86 202.93,150.69 202.93,150.69
             202.93,150.69 201.78,150.69 201.78,150.69 Z
           M 205.64,147.79
           C 205.64,147.79 205.64,147.79 205.64,147.79
             205.64,147.31 205.72,146.88 205.87,146.50
             206.02,146.12 206.21,145.79 206.45,145.53
             206.70,145.26 206.98,145.06 207.29,144.92
             207.60,144.78 207.93,144.71 208.26,144.71
             208.26,144.71 208.26,144.71 208.26,144.71
             208.63,144.71 208.96,144.77 209.25,144.91
             209.54,145.03 209.79,145.22 209.98,145.46
             210.18,145.70 210.33,145.98 210.43,146.32
             210.54,146.66 210.59,147.03 210.59,147.45
             210.59,147.45 210.59,147.45 210.59,147.45
             210.59,147.66 210.58,147.84 210.55,147.99
             210.55,147.99 210.55,147.99 210.55,147.99
             210.55,147.99 206.62,147.99 206.62,147.99
             206.66,148.62 206.85,149.12 207.20,149.49
             207.55,149.85 208.00,150.04 208.56,150.04
             208.56,150.04 208.56,150.04 208.56,150.04
             208.84,150.04 209.10,150.00 209.33,149.92
             209.57,149.83 209.80,149.72 210.01,149.59
             210.01,149.59 210.01,149.59 210.01,149.59
             210.01,149.59 210.36,150.23 210.36,150.23
             210.11,150.39 209.82,150.53 209.51,150.65
             209.20,150.77 208.84,150.83 208.44,150.83
             208.44,150.83 208.44,150.83 208.44,150.83
             208.05,150.83 207.68,150.76 207.34,150.62
             207.00,150.48 206.70,150.28 206.45,150.02
             206.20,149.76 206.01,149.44 205.86,149.07
             205.71,148.69 205.64,148.27 205.64,147.79 Z
           M 206.60,147.34
           C 206.60,147.34 209.72,147.34 209.72,147.34
             209.72,146.74 209.60,146.28 209.35,145.97
             209.10,145.65 208.74,145.49 208.28,145.49
             208.28,145.49 208.28,145.49 208.28,145.49
             208.07,145.49 207.88,145.53 207.69,145.62
             207.50,145.70 207.33,145.82 207.18,145.98
             207.03,146.13 206.90,146.32 206.80,146.56
             206.70,146.78 206.63,147.04 206.60,147.34
             206.60,147.34 206.60,147.34 206.60,147.34 Z
           M 212.03,149.51
           C 212.03,149.51 212.03,142.15 212.03,142.15
             212.03,142.15 213.01,142.15 213.01,142.15
             213.01,142.15 213.01,149.59 213.01,149.59
             213.01,149.75 213.04,149.86 213.10,149.92
             213.15,149.98 213.22,150.02 213.29,150.02
             213.29,150.02 213.29,150.02 213.29,150.02
             213.32,150.02 213.35,150.02 213.38,150.02
             213.41,150.02 213.45,150.01 213.50,149.99
             213.50,149.99 213.50,149.99 213.50,149.99
             213.50,149.99 213.64,150.74 213.64,150.74
             213.57,150.77 213.50,150.79 213.41,150.81
             213.32,150.82 213.21,150.83 213.07,150.83
             213.07,150.83 213.07,150.83 213.07,150.83
             212.70,150.83 212.43,150.72 212.27,150.50
             212.11,150.27 212.03,149.94 212.03,149.51
             212.03,149.51 212.03,149.51 212.03,149.51 Z
           M 217.09,147.79
           C 217.09,147.79 217.09,147.79 217.09,147.79
             217.09,147.31 217.16,146.89 217.30,146.51
             217.44,146.13 217.63,145.80 217.86,145.54
             218.09,145.28 218.36,145.07 218.66,144.93
             218.97,144.78 219.29,144.71 219.62,144.71
             219.62,144.71 219.62,144.71 219.62,144.71
             219.96,144.71 220.25,144.77 220.50,144.89
             220.75,145.01 221.00,145.17 221.26,145.39
             221.26,145.39 221.26,145.39 221.26,145.39
             221.26,145.39 221.21,144.39 221.21,144.39
             221.21,144.39 221.21,142.15 221.21,142.15
             221.21,142.15 222.20,142.15 222.20,142.15
             222.20,142.15 222.20,150.69 222.20,150.69
             222.20,150.69 221.39,150.69 221.39,150.69
             221.39,150.69 221.30,150.01 221.30,150.01
             221.30,150.01 221.27,150.01 221.27,150.01
             221.04,150.23 220.77,150.42 220.47,150.59
             220.17,150.75 219.85,150.83 219.50,150.83
             219.50,150.83 219.50,150.83 219.50,150.83
             218.77,150.83 218.18,150.56 217.75,150.04
             217.31,149.51 217.09,148.76 217.09,147.79 Z
           M 218.11,147.77
           C 218.11,147.77 218.11,147.77 218.11,147.77
             218.11,148.47 218.25,149.02 218.53,149.42
             218.81,149.81 219.21,150.01 219.72,150.01
             219.72,150.01 219.72,150.01 219.72,150.01
             219.99,150.01 220.25,149.94 220.49,149.81
             220.73,149.67 220.97,149.47 221.21,149.20
             221.21,149.20 221.21,149.20 221.21,149.20
             221.21,149.20 221.21,146.15 221.21,146.15
             220.96,145.93 220.72,145.77 220.49,145.68
             220.26,145.58 220.03,145.54 219.79,145.54
             219.79,145.54 219.79,145.54 219.79,145.54
             219.56,145.54 219.34,145.59 219.14,145.70
             218.93,145.81 218.75,145.96 218.60,146.16
             218.45,146.35 218.33,146.58 218.24,146.86
             218.15,147.13 218.11,147.43 218.11,147.77 Z
           M 223.74,147.79
           C 223.74,147.79 223.74,147.79 223.74,147.79
             223.74,147.29 223.81,146.86 223.96,146.48
             224.11,146.10 224.31,145.78 224.56,145.52
             224.81,145.25 225.09,145.05 225.41,144.92
             225.74,144.78 226.08,144.71 226.44,144.71
             226.44,144.71 226.44,144.71 226.44,144.71
             226.80,144.71 227.14,144.78 227.47,144.92
             227.79,145.05 228.07,145.25 228.32,145.52
             228.57,145.78 228.77,146.10 228.92,146.48
             229.07,146.86 229.14,147.29 229.14,147.79
             229.14,147.79 229.14,147.79 229.14,147.79
             229.14,148.27 229.07,148.70 228.92,149.08
             228.77,149.46 228.57,149.78 228.32,150.04
             228.07,150.30 227.79,150.49 227.47,150.63
             227.14,150.76 226.80,150.83 226.44,150.83
             226.44,150.83 226.44,150.83 226.44,150.83
             226.08,150.83 225.74,150.76 225.41,150.63
             225.09,150.49 224.81,150.30 224.56,150.04
             224.31,149.78 224.11,149.46 223.96,149.08
             223.81,148.70 223.74,148.27 223.74,147.79 Z
           M 224.76,147.79
           C 224.76,147.79 224.76,147.79 224.76,147.79
             224.76,148.12 224.80,148.42 224.88,148.70
             224.96,148.97 225.07,149.20 225.22,149.40
             225.37,149.59 225.55,149.74 225.76,149.86
             225.97,149.96 226.19,150.02 226.44,150.02
             226.44,150.02 226.44,150.02 226.44,150.02
             226.69,150.02 226.91,149.96 227.12,149.86
             227.33,149.74 227.51,149.59 227.66,149.40
             227.81,149.20 227.92,148.97 228.00,148.70
             228.08,148.42 228.12,148.12 228.12,147.79
             228.12,147.79 228.12,147.79 228.12,147.79
             228.12,147.45 228.08,147.14 228.00,146.87
             227.92,146.59 227.81,146.35 227.66,146.15
             227.51,145.95 227.33,145.79 227.12,145.69
             226.91,145.58 226.69,145.53 226.44,145.53
             226.44,145.53 226.44,145.53 226.44,145.53
             226.19,145.53 225.97,145.58 225.76,145.69
             225.55,145.79 225.37,145.95 225.22,146.15
             225.07,146.35 224.96,146.59 224.88,146.87
             224.80,147.14 224.76,147.45 224.76,147.79 Z
           M 230.24,147.79
           C 230.24,147.79 230.24,147.79 230.24,147.79
             230.24,147.29 230.32,146.86 230.47,146.48
             230.62,146.10 230.83,145.78 231.08,145.52
             231.34,145.25 231.64,145.05 231.98,144.92
             232.32,144.78 232.68,144.71 233.05,144.71
             233.05,144.71 233.05,144.71 233.05,144.71
             233.44,144.71 233.77,144.78 234.04,144.92
             234.32,145.06 234.56,145.22 234.76,145.41
             234.76,145.41 234.76,145.41 234.76,145.41
             234.76,145.41 234.26,146.05 234.26,146.05
             234.09,145.89 233.91,145.77 233.72,145.67
             233.53,145.57 233.32,145.53 233.09,145.53
             233.09,145.53 233.09,145.53 233.09,145.53
             232.82,145.53 232.58,145.58 232.36,145.69
             232.13,145.79 231.94,145.95 231.78,146.15
             231.62,146.35 231.49,146.59 231.40,146.87
             231.31,147.14 231.26,147.45 231.26,147.79
             231.26,147.79 231.26,147.79 231.26,147.79
             231.26,148.12 231.31,148.42 231.40,148.70
             231.49,148.97 231.61,149.20 231.76,149.40
             231.92,149.59 232.11,149.74 232.33,149.86
             232.56,149.96 232.80,150.02 233.06,150.02
             233.06,150.02 233.06,150.02 233.06,150.02
             233.34,150.02 233.60,149.96 233.83,149.84
             234.06,149.72 234.26,149.59 234.43,149.43
             234.43,149.43 234.43,149.43 234.43,149.43
             234.43,149.43 234.88,150.08 234.88,150.08
             234.61,150.31 234.32,150.49 233.99,150.63
             233.67,150.76 233.33,150.83 232.98,150.83
             232.98,150.83 232.98,150.83 232.98,150.83
             232.59,150.83 232.23,150.76 231.90,150.63
             231.57,150.49 231.28,150.30 231.03,150.04
             230.78,149.78 230.59,149.46 230.45,149.08
             230.31,148.70 230.24,148.27 230.24,147.79 Z
           M 235.50,150.03
           C 235.50,150.03 235.99,149.37 235.99,149.37
             236.25,149.57 236.51,149.74 236.78,149.87
             237.05,150.00 237.36,150.07 237.71,150.07
             237.71,150.07 237.71,150.07 237.71,150.07
             238.09,150.07 238.38,149.98 238.57,149.80
             238.76,149.62 238.86,149.41 238.86,149.15
             238.86,149.15 238.86,149.15 238.86,149.15
             238.86,149.00 238.82,148.87 238.74,148.76
             238.66,148.64 238.56,148.54 238.43,148.46
             238.31,148.38 238.17,148.30 238.01,148.24
             237.85,148.18 237.69,148.11 237.53,148.05
             237.53,148.05 237.53,148.05 237.53,148.05
             237.32,147.97 237.11,147.89 236.90,147.80
             236.69,147.71 236.51,147.60 236.35,147.47
             236.18,147.33 236.05,147.18 235.94,147.01
             235.84,146.83 235.79,146.61 235.79,146.37
             235.79,146.37 235.79,146.37 235.79,146.37
             235.79,146.13 235.84,145.92 235.93,145.72
             236.02,145.51 236.15,145.33 236.32,145.19
             236.49,145.04 236.70,144.92 236.95,144.84
             237.20,144.75 237.48,144.71 237.79,144.71
             237.79,144.71 237.79,144.71 237.79,144.71
             238.16,144.71 238.50,144.77 238.81,144.91
             239.12,145.03 239.38,145.19 239.60,145.37
             239.60,145.37 239.60,145.37 239.60,145.37
             239.60,145.37 239.14,146.00 239.14,146.00
             238.94,145.84 238.73,145.72 238.51,145.63
             238.30,145.53 238.06,145.48 237.80,145.48
             237.80,145.48 237.80,145.48 237.80,145.48
             237.43,145.48 237.16,145.56 236.99,145.73
             236.82,145.90 236.74,146.10 236.74,146.32
             236.74,146.32 236.74,146.32 236.74,146.32
             236.74,146.46 236.77,146.58 236.84,146.68
             236.91,146.78 237.01,146.86 237.13,146.94
             237.25,147.01 237.39,147.08 237.55,147.14
             237.70,147.20 237.86,147.26 238.03,147.33
             238.03,147.33 238.03,147.33 238.03,147.33
             238.24,147.41 238.45,147.49 238.66,147.58
             238.87,147.66 239.06,147.77 239.23,147.91
             239.40,148.04 239.54,148.20 239.65,148.40
             239.76,148.59 239.81,148.82 239.81,149.09
             239.81,149.09 239.81,149.09 239.81,149.09
             239.81,149.33 239.76,149.55 239.67,149.77
             239.58,149.97 239.44,150.16 239.26,150.32
             239.08,150.48 238.86,150.60 238.59,150.70
             238.32,150.78 238.02,150.83 237.67,150.83
             237.67,150.83 237.67,150.83 237.67,150.83
             237.26,150.83 236.86,150.75 236.48,150.61
             236.11,150.45 235.78,150.26 235.50,150.03
             235.50,150.03 235.50,150.03 235.50,150.03 Z" />
</svg>
