<?xml version="1.0" encoding="UTF-8" standalone="no"?>
<!DOCTYPE svg PUBLIC "-//W3C//DTD SVG 20010904//EN"
              "http://www.w3.org/TR/2001/REC-SVG-20010904/DTD/svg10.dtd">

<svg xmlns="http://www.w3.org/2000/svg"
     width="3.77778in" height="2.77778in"
     viewBox="0 0 340 250">
  <path id="triangle"
        fill="none" stroke="black" stroke-width="1"
        d="M 107.08,148.93
           C 107.08,148.93 78.59,99.57 78.59,99.57
             78.33,99.12 77.84,98.82 77.29,98.82
             76.73,98.82 76.25,99.12 75.99,99.57
             75.99,99.57 47.49,148.93 47.49,148.93
             47.36,149.15 47.29,149.41 47.29,149.68
             47.29,150.51 47.96,151.18 48.78,151.18
             48.79,151.18 48.79,151.18 48.79,151.18
             48.79,151.18 105.78,151.18 105.78,151.18
             105.78,151.18 105.78,151.18 105.79,151.18
             106.61,151.18 107.29,150.51 107.29,149.68
             107.29,149.41 107.21,149.15 107.08,148.93
             107.08,148.93 107.08,148.93 107.08,148.93 Z
           M 51.39,148.18
           C 51.39,148.18 77.29,103.32 77.29,103.32
             77.29,103.32 103.18,148.18 103.18,148.18
             103.18,148.18 51.39,148.18 51.39,148.18 Z" />
</svg>
