<?xml version="1.0" encoding="UTF-8" standalone="no"?>
<svg
   width="2.7424498in"
   height="2.3940046in"
   viewBox="0 0 181.43848 215.45999"
   version="1.1"
   id="svg3"
   sodipodi:docname="icon.svg"
   inkscape:version="1.1.2 (0a00cf5339, 2022-02-04, custom)"
   xmlns:inkscape="http://www.inkscape.org/namespaces/inkscape"
   xmlns:sodipodi="http://sodipodi.sourceforge.net/DTD/sodipodi-0.dtd"
   xmlns="http://www.w3.org/2000/svg"
   xmlns:svg="http://www.w3.org/2000/svg">
  <defs
     id="defs7" />
  <sodipodi:namedview
     id="namedview5"
     pagecolor="#ffffff"
     bordercolor="#666666"
     borderopacity="1.0"
     inkscape:pageshadow="2"
     inkscape:pageopacity="0.0"
     inkscape:pagecheckerboard="0"
     inkscape:document-units="in"
     showgrid="false"
     inkscape:zoom="14.384204"
     inkscape:cx="114.01395"
     inkscape:cy="128.99567"
     inkscape:window-width="3456"
     inkscape:window-height="2160"
     inkscape:window-x="0"
     inkscape:window-y="0"
     inkscape:window-maximized="1"
     inkscape:current-layer="svg3" />
  <path
     id="icon"
     fill="none"
     stroke="#000000"
     stroke-width="0.892234"
     d="M 200.9057,195.32103 96.764216,14.929289 c -0.954695,-1.64171 -2.739159,-2.739156 -4.755606,-2.739156 -2.043215,0 -3.800915,1.097446 -4.746681,2.739156 L -16.924164,195.32103 c -0.472884,0.80301 -0.731631,1.74878 -0.731631,2.73916 0,3.0336 2.444719,5.47831 5.442623,5.47831 h 0.04461 208.327572 0.0357 c 2.99791,0 5.47831,-2.44471 5.47831,-5.47831 0,-0.99038 -0.28551,-1.93615 -0.76731,-2.73916 v 0 z M -2.6662755,192.58188 92.00861,28.633993 186.64781,192.58188 Z M 73.00404,88.49393 c -3.033594,0 -5.487235,2.453641 -5.487235,5.487232 0,3.024674 2.453641,5.478314 5.487235,5.478314 8.7888,0.174361 18.081394,9.865744 17.959927,19.585484 l -30.103223,52.63189 c -0.401505,0.76732 -0.651331,1.60602 -0.651331,2.5161 0,3.03359 2.480409,5.48724 5.478313,5.48724 2.016447,0 3.729536,-1.02607 4.719914,-2.6321 l 25.955071,-45.86971 c 6.977259,15.67654 15.712229,35.48412 15.863909,35.81424 3.10497,7.53046 10.52835,12.83032 19.19194,12.83032 2.1592,0 4.2381,-0.33013 6.17425,-0.91007 2.23058,-0.69595 3.8723,-2.78377 3.8723,-5.2285 0,-3.03359 -2.48041,-5.52292 -5.51401,-5.52292 -0.55318,0 -1.09744,0.11599 -1.60601,0.25875 -0.919,0.29443 -1.90046,0.4372 -2.89084,0.4372 -4.20242,0 -7.7892,-2.6321 -9.21677,-6.35271 -0.87439,-1.98075 -21.34222,-48.43043 -24.125994,-54.34593 l -0.47288,-1.02607 C 94.828064,101.10119 89.046395,88.49393 73.00404,88.49393 Z"
     sodipodi:nodetypes="ccsccssccsssccccccsscccsscccscsscscccs" />
</svg>
