<?xml version="1.0" encoding="UTF-8" standalone="no"?>
<!DOCTYPE svg PUBLIC "-//W3C//DTD SVG 20010904//EN"
              "http://www.w3.org/TR/2001/REC-SVG-20010904/DTD/svg10.dtd">

<svg xmlns="http://www.w3.org/2000/svg"
     width="15.4778in" height="11.3778in"
     viewBox="0 0 1024 1024">
  <path id="icon"
        fill="none" stroke="black" stroke-width="1"
        d="M 438.71,610.02
           C 438.71,610.02 321.99,407.84 321.99,407.84
             320.92,406.00 318.92,404.77 316.66,404.77
             314.37,404.77 312.40,406.00 311.34,407.84
             311.34,407.84 194.57,610.02 194.57,610.02
             194.04,610.92 193.75,611.98 193.75,613.09
             193.75,616.49 196.49,619.23 199.85,619.23
             199.90,619.23 199.90,619.23 199.90,619.23
             199.90,619.23 433.39,619.23 433.39,619.23
             433.39,619.23 433.39,619.23 433.43,619.23
             436.79,619.23 439.57,616.49 439.57,613.09
             439.57,611.98 439.25,610.92 438.71,610.02
             438.71,610.02 438.71,610.02 438.71,610.02 Z
           M 210.55,606.95
           C 210.55,606.95 316.66,423.20 316.66,423.20
             316.66,423.20 422.73,606.95 422.73,606.95
             422.73,606.95 210.55,606.95 210.55,606.95 Z
           M 295.36,490.29
           C 291.96,490.29 289.21,493.04 289.21,496.44
             289.21,499.83 291.96,502.58 295.36,502.58
             304.70,502.58 308.18,508.52 311.75,516.34
             311.75,516.34 313.59,516.34 313.59,516.34
             316.66,519.74 316.54,522.90 316.54,522.90
             316.54,522.90 281.75,583.52 281.75,583.52
             281.30,584.38 281.02,585.32 281.02,586.34
             281.02,589.74 283.80,592.49 287.16,592.49
             289.42,592.49 291.34,591.34 292.45,589.54
             292.45,589.54 321.54,538.13 321.54,538.13
             329.36,555.70 339.15,577.90 339.32,578.27
             342.80,586.71 351.12,592.65 360.83,592.65
             363.25,592.65 365.58,592.28 367.75,591.63
             370.25,590.85 372.09,588.51 372.09,585.77
             372.09,582.37 369.31,579.58 365.91,579.58
             365.29,579.58 364.68,579.71 364.11,579.87
             363.08,580.20 361.98,580.36 360.87,580.36
             356.16,580.36 352.14,577.41 350.54,573.24
             349.56,571.02 326.62,518.96 323.50,512.33
             323.50,512.33 322.97,511.18 322.97,511.18
             319.82,504.42 313.34,490.29 295.36,490.29 Z" />
</svg>
